<svg viewBox="0 0 1680 27" fill="none" xmlns="http://www.w3.org/2000/svg">
<g clip-path="url(#clip0_8861_48245)">
<path d="M0 112.17H1680V5.83701C1679.13 5.75367 1677.83 5.67034 1676.25 5.71201C1672.83 5.79534 1670.79 6.42034 1669.17 6.71201C1662.46 7.87867 1660.79 3.21201 1655.75 4.67034C1651.54 5.87867 1650.75 9.67034 1646.96 9.42034C1644.83 9.29534 1644.75 8.08701 1642.79 7.96201C1638.04 7.71201 1635.33 14.462 1632.67 13.587C1630.79 12.962 1631.42 9.37867 1629.04 8.54534C1627.21 7.87867 1626.08 9.83701 1623.83 9.42034C1621.29 8.96201 1621.21 6.21201 1618.79 4.67034C1615.79 2.75367 1613.42 5.46201 1606.67 5.96201C1598.37 6.58701 1595.38 3.04534 1591.21 5.67034C1588.33 7.50367 1588.17 10.2537 1586 10.2953C1583.17 10.337 1582.29 5.62867 1578.79 5.37867C1576.71 5.21201 1576.71 6.83701 1573.46 7.42034C1570.25 7.96201 1569.5 6.54534 1565.79 7.12867C1563.5 7.50367 1563.21 8.17034 1561.62 8.00367C1559.29 7.75367 1558.17 6.12867 1556.71 5.12867C1553.62 2.96201 1550.71 4.75367 1542.12 5.71201C1537.37 6.25367 1532.96 6.75367 1527.25 6.12867C1521.83 5.54534 1519.54 4.46201 1516.29 6.00367C1514.25 6.96201 1512.83 8.46201 1510.79 8.04534C1509.17 7.67034 1508.83 6.42034 1507.46 5.46201C1504.71 3.50367 1501.37 5.12867 1496.21 6.04534C1488.12 7.42034 1488.33 4.79534 1480.92 6.33701C1475.79 7.37867 1474.17 8.96201 1469.96 8.50367C1466.79 8.17034 1465.08 7.00367 1462.87 6.04534C1458.08 3.92034 1452 4.33701 1440.08 5.17034C1425.71 6.21201 1426.79 7.42034 1422.17 6.62867C1417.21 5.75367 1413.71 4.00367 1406.87 4.17034C1403.79 4.25367 1403.04 4.67034 1399.79 5.04534C1387.83 6.46201 1383.17 0.795341 1377 4.04534C1374.88 5.17034 1374.42 6.29534 1372.37 6.50367C1368.5 6.92034 1366.71 2.87867 1363.29 3.92034C1360.71 4.67034 1360.5 6.58701 1357.96 7.08701C1354.96 7.67034 1353.67 5.33701 1349.88 4.21201C1346.42 3.17034 1345.79 4.62867 1337.04 5.67034C1328.96 6.62867 1329.58 5.42034 1324.33 6.54534C1319.58 7.54534 1317.58 8.87867 1314.79 7.71201C1313.08 7.00367 1312.62 5.96201 1309.58 4.67034C1308.83 4.33701 1307 3.75367 1304.67 3.79534C1301.62 3.87867 1301.12 5.00367 1298.17 5.37867C1295.37 5.71201 1294.75 4.29534 1291.08 4.50367C1284.92 4.87867 1283 5.08701 1283 5.08701C1273.5 6.00367 1271.71 6.08701 1270 4.79534C1268.96 4.00367 1268.42 3.04534 1267.12 2.92034C1265.5 2.75367 1264.79 4.04534 1262.79 4.79534C1260.42 5.67034 1258.75 5.12867 1256.17 4.92034C1249.5 4.37867 1248.08 7.71201 1242.29 7.37867C1238.46 7.12867 1237.87 4.83701 1233.21 3.92034C1227.79 2.83701 1222.79 2.62867 1211.71 3.21201C1196.5 4.00367 1196.58 4.92034 1190.92 4.21201C1187.92 3.83701 1184.5 2.79534 1179.5 3.33701C1176.71 3.62867 1175.75 4.12867 1172.71 4.21201C1167.58 4.29534 1167.33 2.67034 1164.04 3.33701C1159.12 4.29534 1157.87 7.00367 1154.5 6.37867C1151.92 5.87867 1151.96 4.17034 1149.75 3.92034C1145.08 3.42034 1141.46 10.7953 1139.62 9.83701C1138.75 9.37867 1139.71 7.67034 1138.62 5.79534C1137.04 3.08701 1132.33 2.00367 1128.96 3.04534C1126.96 3.67034 1126.83 4.58701 1124.79 4.92034C1122.71 5.25367 1121.5 4.71201 1119.29 4.21201C1118.5 4.04534 1112.83 2.79534 1107 3.92034C1104.92 4.33701 1103.17 4.87867 1101.21 4.04534C1099.96 3.50367 1099.88 2.79534 1098.75 2.46201C1096.67 1.79534 1094.5 3.46201 1093.5 4.08701C1090.42 6.04534 1088.62 4.46201 1077.58 4.29534C1067.21 4.12867 1067.12 5.46201 1061.67 4.50367C1060.04 4.21201 1057.71 3.71201 1054.58 4.12867C1051.79 4.50367 1050.87 5.29534 1048.29 5.71201C1044.62 6.33701 1043.04 5.33701 1040.04 5.12867C1031.21 4.54534 1027.46 12.0453 1022.92 9.83701C1019.87 8.33701 1020.92 4.62867 1017.42 3.33701C1014.96 2.42034 1013.75 4.00367 1008.96 3.54534C1006 3.25367 1006.29 2.62867 1003.67 2.37867C999.292 1.96201 998.417 3.67034 993.458 3.96201C991.125 4.08701 992.042 3.83701 985.583 3.96201C979.417 4.08701 979.5 4.37867 976.917 4.17034C972.75 3.83701 970.5 2.87867 970.042 3.79534C969.417 4.96201 972.625 6.96201 972 8.92034C971.375 10.837 967.167 11.9203 965.5 10.5037C964.25 9.42034 965.458 7.71201 964.125 5.79534C962.792 3.87867 959.75 3.00367 957.417 3.62867C955.292 4.21201 955.25 5.71201 953.292 6.00367C951.208 6.29534 950.375 4.75367 948 4.25367C944.958 3.58701 943.875 5.54534 940.125 6.21201C934.25 7.29534 931.958 3.00367 927.917 4.83701C925.875 5.79534 925.458 7.29534 923.25 7.50367C921.667 7.62867 920.75 6.96201 918.667 6.04534C917.292 5.42034 913.542 3.71201 910 3.50367C905.833 3.21201 905.708 5.17034 901.5 4.96201C897.5 4.75367 897.25 2.96201 893.5 2.92034C890 2.54534 889.167 4.04534 885.417 4.58701C881.875 5.08701 881.333 3.83701 876.375 3.21201C866.958 2.04534 864.042 5.87867 857.708 3.58701C856.333 3.08701 854.875 2.37867 852.792 2.58701C850.25 2.87867 849.292 4.37867 847.083 4.17034C845.25 4.00367 845.125 2.83701 843.333 2.21201C839.542 0.837007 837.583 5.04534 832.917 4.67034C828.542 4.33701 826.917 0.378674 824.042 1.42034C822.375 2.04534 822.333 3.54534 820.292 4.37867C818.292 5.21201 816.208 4.33701 815.167 4.00367C808.833 1.87867 803.75 6.79534 796.292 6.54534C789.917 6.33701 790.458 2.62867 782.917 0.628674C774.25 -1.62133 772.833 2.87867 759.583 3.04534C747.417 3.21201 744 -0.537993 736.667 2.75367C734.125 3.92034 732.167 5.42034 728 6.29534C724.208 7.08701 721.292 6.75367 717.167 6.29534C706.875 5.08701 705.125 2.46201 700.625 4.12867C698.25 5.00367 696.833 6.25367 694.125 6.08701C691.708 5.96201 691.417 4.46201 689 4.50367C686.458 4.54534 686 6.21201 683.708 6.08701C681.5 5.96201 681.458 4.42034 679.167 4.12867C676.542 3.79534 675.958 5.75367 672.458 5.87867C670.625 5.96201 670.583 5.42034 667.542 5.08701C664.875 4.79534 664.583 5.17034 661.25 5.08701C655.458 4.96201 654.042 3.83701 652.417 5.08701C650.75 6.33701 650.958 8.46201 649.667 8.62867C648.625 8.75367 648.167 7.37867 646.5 6.25367C644.208 4.67034 642.167 6.62867 637.833 6.25367C635.708 6.08701 634.417 5.50367 633.125 5.08701C627.25 3.17034 622.25 4.79534 610.125 5.67034C600.667 6.33701 595.208 5.67034 594.792 7.42034C594.458 8.71201 599 10.337 598.708 11.1703C598.375 12.0453 593.292 9.37868 587.875 10.962C583 12.4203 581.333 16.337 579.208 15.5037C577.458 14.7953 578.458 11.837 575.875 9.21201C573.833 7.12867 570.417 6.12867 569 7.25367C568.042 8.00367 568.75 9.12867 567.833 10.587C566.375 12.837 563.167 13.3787 561.917 13.5453C553.667 14.6287 549.583 7.00367 543.833 8.83701C540.75 9.79534 541.792 12.0453 537.917 14.1287C532.125 17.337 524.708 15.087 519.625 13.5453C515.083 12.1703 515.083 11.3787 510.792 10.3787C509.875 10.1703 508.625 9.92034 499.708 9.37867C490.833 8.83701 489.167 8.92034 487.417 10.1703C485.25 11.712 485.083 13.587 483.5 13.5037C480.708 13.4203 480.208 9.08701 476.792 8.58701C474.958 8.29534 474.708 9.50367 472.083 9.75367C467.708 10.1703 464.958 7.25367 464 8.17034C462.833 9.33701 466.417 14.4203 465.75 14.8787C465.25 15.212 463.208 12.1703 459.667 9.96201C456.333 7.87868 453.167 7.46201 451.417 7.21201C443.25 6.08701 441.875 10.3787 433.917 9.75367C429.417 9.42034 430.083 8.87867 422.292 8.37867C415.667 7.92034 412.333 7.71201 408.333 8.58701C400.042 10.3787 396.125 14.8787 393.167 13.1287C391.25 11.962 392.167 9.00367 390.208 8.21201C387.833 7.25367 385.917 11.4203 381.75 11.3787C378.917 11.337 378.583 9.37867 374.667 8.83701C371.875 8.46201 371.583 9.71201 368.375 10.0037C362.25 10.5453 359.958 6.62867 356.583 8.25367C355.333 8.83701 355.833 9.29534 352.042 13.1703C349.917 15.337 348.833 16.462 347.708 16.712C344.875 17.3787 341.75 15.212 340.042 13.1703C337.292 9.87867 338.083 6.71201 336.5 6.29534C334 5.62867 331.875 13.2953 327.25 13.587C324.083 13.7953 323.958 9.54534 318.792 8.29534C313.333 6.92034 312.125 8.83701 303.833 8.29534C302.042 8.17034 299.25 8.17034 295.167 8.29534C293.25 8.37867 292.625 8.42034 291.25 8.50367C281.417 8.96201 279.75 6.83701 276.708 8.71201C272.667 11.212 270.958 15.2953 269.833 14.7953C268.583 14.2537 270.875 9.46201 268.833 7.71201C266.375 5.58701 261.042 11.0037 255.458 8.71201C254.208 8.17034 253.125 7.37867 251.708 7.71201C249.708 8.21201 249.833 10.4203 248.167 11.0453C245 12.2953 240.75 5.87867 238.333 7.12867C237.25 7.67034 237.875 9.08701 236.375 10.6703C234.625 12.5037 231.5 13.1287 230.458 12.0453C229.417 10.962 231.208 8.62867 230.25 7.71201C229.25 6.75367 227.042 9.00367 222.958 9.67034C218.208 10.462 215.542 8.29534 214.125 9.87867C212.625 11.5037 214.667 14.5453 213.542 15.3787C211.958 16.5453 208.167 10.2953 201.542 9.46201C197.542 8.96201 197.333 11.087 190.542 11.212C186.542 11.2953 186.25 10.587 181.875 10.837C177.333 11.087 176.708 11.9203 173.625 11.6287C170 11.2953 169.208 10.0037 165.75 9.08701C161.542 7.96201 160.125 9.12867 153.375 9.46201C144.75 9.87867 145 8.04534 137.625 8.67034C130.583 9.25367 130.583 10.9203 124.625 10.837C120.917 10.7953 117.917 9.04534 113.417 10.2537C111.417 10.7953 111.75 11.1287 109.875 11.6287C104.333 13.1287 102.083 9.04534 97.25 10.8787C93.5417 12.2537 93.0417 13.8787 89.9583 14.0453C86.3333 14.212 85.625 12.0453 82.6667 12.462C78.375 13.0453 77.0833 18.087 74.625 17.5453C72.2083 17.0037 72.25 11.9203 69.9167 11.6287C68.3333 11.4203 67.9583 13.6703 65.5833 14.3787C62.4167 15.3787 60.8333 12.087 56.3333 11.6703C51.9167 11.2537 51.625 14.1703 47.0833 13.837C42.4583 13.5037 41.375 10.337 37.4583 11.087C35.4167 11.462 34.9167 12.4203 32.3333 12.6287C29.9583 12.7953 29.4583 12.0453 27.4167 12.0453C23.625 12.0453 23.0417 15.2537 19.5417 15.212C15.5833 15.1287 13.9167 12.6287 10.0833 12.2537C7.79167 12.0037 4.41667 12.5453 0 16.1703V112.17Z" fill="#FEF3E1"/>
</g>
<defs>
<clipPath id="clip0_8861_48245">
<rect width="1680" height="27" fill="white"/>
</clipPath>
</defs>
</svg>
