<svg viewBox="0 0 1680 36" fill="none" xmlns="http://www.w3.org/2000/svg">
<path d="M1680 3.64577C1680 38.7758 1680 73.8958 1680 109.036C1120 109.046 560 109.046 0 109.036C0 77.2158 0 45.4058 0 13.5958C6.28 10.1058 12.73 9.66577 19.47 12.2658C20.63 12.7158 22.22 12.7558 23.4 12.3658C31.27 9.74577 39.14 9.76577 47.16 11.6858C49.15 12.1658 51.86 12.3258 53.44 11.3558C59 7.92577 64.7 13.4358 70.15 10.7258C70.4 10.5958 71.35 11.6658 71.86 12.2658C74.38 15.2258 77.61 15.3858 80.68 12.8558C81.86 11.8758 83.5 10.4658 84.7 10.6558C88.93 11.3358 93.26 13.8658 96.46 8.66577C96.55 8.52577 97.11 8.58577 97.42 8.67577C102.48 10.1558 110.32 6.55577 110.35 16.2958C114.24 14.6558 120 14.7358 114.96 8.87577C115.39 8.49577 115.64 8.08577 115.89 8.08577C123.84 8.14577 131.79 8.37577 139.73 8.30577C147.46 8.23577 155.2 7.80577 162.93 7.67577C165.2 7.63577 167.87 7.40577 169.69 8.42577C176.62 12.3158 183.47 9.66577 190.39 8.91577C195.91 8.31577 201.65 6.94577 206.95 7.86577C212.62 8.85577 217.55 7.11577 222.8 6.54577C225.58 6.24577 228.37 6.10577 231.56 5.86577C230.71 7.34577 230.15 8.32577 229.59 9.30577C229.74 9.75577 229.9 10.2058 230.05 10.6458C236.13 7.41577 241.88 6.16577 248.91 7.71577C255.07 9.07577 262.16 6.30577 269.15 5.31577C269.15 7.23577 269.15 8.31577 269.15 9.72577C272.9 8.59577 276.31 7.19577 279.85 6.60577C283.53 5.99577 287.33 6.16577 291.09 5.98577C289.66 8.39577 286.85 9.54577 286.45 11.2458C285.8 13.9858 286.11 17.3458 287.16 19.9958C288.86 24.2958 292.74 21.1758 295.59 21.3358C296.72 21.3958 297.96 19.5858 300.13 17.8458C295.2 17.0458 291.68 17.2158 291.92 12.2358C292.15 7.41577 294.3 5.31577 298.97 5.61577C302.32 5.83577 305.66 6.50577 308.99 6.48577C315.86 6.44577 322.86 5.58577 327.99 12.1458C326.14 13.3858 324.13 14.7358 322.08 16.1058C325.81 23.6358 331.87 19.9858 337.81 18.7258C336.23 16.5558 334.13 14.9858 332.37 13.1058C331.45 12.1258 330.3 9.86577 330.67 9.44577C332.36 7.56577 334.55 6.14577 336.56 4.56577C337.03 4.74577 337.51 4.92577 337.98 5.11577C338.11 8.84577 333.2 14.2558 341.26 15.1758C335.04 21.4058 343.83 20.7258 343.92 23.4358C347.51 22.3058 350.73 21.2958 352.81 20.6358C354.04 15.5358 355.13 11.0458 356.36 5.95577C371.33 18.2758 379.17 23.7658 391.48 18.3858C385.91 19.0858 381.69 17.9758 381.35 10.6558C384.46 9.79577 387.76 8.88577 391.44 7.87577C390.92 12.5858 393.29 12.8658 396.86 11.8958C399.3 11.2358 401.89 11.1458 403.6 10.9158C404.32 13.4158 404.38 16.5158 405.47 16.9258C412.99 19.7658 420.76 19.0458 428.51 17.3858C424.6 15.7658 420.68 14.1458 416.67 12.4858C420.22 5.84577 421.69 5.68577 428.21 6.59577C434.37 7.45577 441.05 8.40577 446.88 6.91577C452.86 5.38577 457.12 7.29577 462.02 9.39577C463.07 8.91577 464.26 8.00577 465.56 7.84577C468.81 7.44577 472.1 7.30577 475.38 7.22577C476.31 7.20577 477.53 7.43577 478.14 8.03577C482.13 11.9658 485.76 12.1158 489.08 6.76577C491.87 8.97577 494.76 10.5558 496.63 12.9358C498.71 15.5758 500.57 15.7458 503.35 14.5258C507.39 12.7458 511.47 11.0358 515.68 9.73577C516.72 9.41577 519.16 10.5558 519.41 11.4558C519.76 12.6858 518.98 14.6158 518.05 15.7258C516.99 16.9858 515.24 17.6558 513.79 18.5858C513.86 19.1658 513.94 19.7458 514.01 20.3258C516.59 20.5958 519.17 20.8558 521.75 21.1258C523 21.2558 524.74 20.9558 525.43 21.6558C529.9 26.2358 535.16 23.9858 540.11 23.3858C541.26 23.2458 542.18 21.2258 543.21 20.0658C541.98 19.0258 540.91 17.4858 539.49 17.0458C537.07 16.2858 534.43 16.1958 531.69 15.7958C534.83 13.6558 537.56 11.8358 540.26 9.97577C545.07 6.65577 548.76 7.27577 553.49 11.1258C556.5 13.5758 560.24 15.1158 563.91 17.2158C563.33 14.4458 562.4 11.4458 562.72 11.3058C566.3 9.75577 568.62 5.20577 573.33 6.45577C574.57 6.78577 576.07 7.64577 576.64 8.69577C579.49 13.9558 580.1 14.2858 585.42 10.8058C588.16 9.00577 590.53 7.54577 592.69 11.5658C595.26 6.30577 599.63 4.37577 604.39 4.03577C612.93 3.42577 621.53 3.67577 630.08 3.16577C633.24 2.97577 634.92 3.12577 634.31 6.87577C634.16 7.81577 635.18 8.93577 635.66 9.97577C636.43 8.93577 637.16 7.86577 637.98 6.87577C638.8 5.87577 639.63 4.24577 640.61 4.11577C645.39 3.47577 650.54 7.32577 655.05 2.87577C655.19 2.74577 655.68 3.00577 656 3.00577C660.94 3.11577 666 0.995774 670.79 4.42577C671.86 5.19577 674.26 3.97577 676.06 3.91577C681.11 3.72577 686.17 3.40577 691.21 3.65577C694.27 3.80577 697.52 6.47577 699.8 2.14577C699.95 1.86577 701.26 2.17577 702.03 2.23577C709.33 2.75577 716.63 3.63577 723.93 3.67577C728.03 3.70577 732.11 1.98577 736.25 1.71577C746.94 1.00577 757.65 0.355774 768.36 0.265774C775.36 0.205774 782.5 -0.794226 789.39 1.98577C791.04 2.64577 793.35 1.68577 795.11 1.49577C804.59 8.64577 813.73 0.285774 821.56 1.06577C823.68 2.35577 824.88 3.72577 825.98 3.64577C829.7 3.39577 833.41 2.76577 837.06 2.00577C839.11 1.57577 841.14 -0.184226 843.03 0.0157738C847.66 0.525774 852.18 1.88577 856.78 2.75577C857.67 2.92577 858.69 2.44577 859.64 2.24577C861.86 1.77577 864.06 1.14577 866.3 0.875774C868.51 0.615774 870.78 0.515774 872.98 0.715774C876.66 1.04577 880.31 1.71577 883.98 2.12577C885.63 2.30577 887.31 2.28577 888.96 2.20577C889.77 2.16577 890.56 1.73577 891.37 1.55577C896.51 0.375774 900.9 1.89577 904.25 5.76577C910.08 0.195774 908.96 1.21577 916.2 2.31577C920 2.89577 923.92 3.49577 927.71 3.18577C931.96 2.84577 936.02 1.97577 940.19 3.90577C941.36 4.44577 943.26 3.57577 944.76 3.16577C945.84 2.86577 946.84 1.82577 947.86 1.84577C953.06 1.93577 958.25 2.26577 963.75 2.51577C963.96 3.93577 964.15 5.28577 964.43 7.18577C966.44 6.71577 968.07 6.32577 970.43 5.76577C968.99 4.22577 968.16 3.34577 966.14 1.19577C985.37 1.19577 1003.4 1.19577 1021.4 1.19577C1021.97 3.74577 1022.32 5.30577 1022.78 7.35577C1025.54 6.76577 1028.09 6.19577 1030.65 5.66577C1034.19 4.94577 1037.73 4.24577 1041.28 3.54577C1044.87 2.83577 1048.46 2.13577 1052.05 1.43577C1053.31 1.18577 1054.59 0.695774 1055.83 0.755774C1063.39 1.12577 1070.94 1.82577 1078.5 2.02577C1084.79 2.19577 1091.1 1.61577 1097.4 1.79577C1102.1 1.93577 1107.77 -0.244226 1110.18 6.78577C1110.97 9.09577 1113.24 8.32577 1114.87 6.33577C1118.11 2.37577 1122.24 0.725774 1127.42 2.28577C1128.22 2.52577 1129.28 1.75577 1130.2 1.78577C1132.41 1.86577 1134.63 2.01577 1136.8 2.39577C1137.79 2.56577 1138.7 3.84577 1139.6 3.79577C1146.44 3.39577 1153.28 2.81577 1160.11 2.22577C1164.48 1.85577 1168.85 1.37577 1173.22 0.945774C1172.99 1.48577 1172.76 2.03577 1172.53 2.57577C1174.26 5.10577 1175.81 7.79577 1177.86 10.0458C1178.29 10.5158 1181.7 9.37577 1181.7 8.97577C1181.7 6.75577 1181.07 4.53577 1180.55 1.76577C1184.33 1.76577 1188.24 1.89577 1192.15 1.73577C1199.49 1.43577 1206.82 0.775774 1214.15 0.615774C1219.91 0.495774 1225.69 0.775774 1231.44 1.14577C1232.94 1.24577 1234.4 2.32577 1235.82 3.05577C1239.9 5.14577 1243.96 7.28577 1246.75 8.74577C1247.71 11.1658 1248.13 13.0258 1249.17 14.4358C1249.61 15.0358 1252.08 15.1358 1252.36 14.6858C1253.17 13.3858 1253.78 11.6558 1253.65 10.1658C1253.28 5.92577 1256.16 2.10577 1260.21 2.10577C1263.87 2.10577 1267.54 2.23577 1271.2 2.29577C1279.11 2.40577 1287.02 2.44577 1294.92 2.70577C1295.88 2.73577 1296.81 3.92577 1297.75 4.59577C1298.69 5.26577 1299.78 6.64577 1300.52 6.47577C1301.66 6.20577 1303.04 5.07577 1303.46 3.98577C1304.65 0.895774 1306.31 0.495774 1309.01 2.14577C1313.39 4.83577 1316.75 6.79577 1323.25 4.45577C1331.83 1.36577 1342.18 1.04577 1351.33 2.42577C1356.53 3.20577 1361.85 2.08577 1367.36 4.02577C1372.52 5.83577 1377.35 7.20577 1381.61 10.7958C1383.67 12.5258 1386.64 13.1958 1389.72 14.5758C1390.04 7.32577 1390 7.49577 1384.88 6.42577C1383.35 6.10577 1382.06 4.59577 1380.67 3.62577C1380.95 3.11577 1381.22 2.60577 1381.5 2.09577C1384.18 2.84577 1386.87 3.59577 1390.46 4.60577C1396.56 3.87577 1403.84 2.94577 1411.13 2.16577C1412.21 2.04577 1413.39 2.52577 1414.49 2.86577C1424.65 5.96577 1434.79 3.17577 1444.96 3.01577C1451.18 2.91577 1457.49 3.62577 1463.62 4.75577C1467.79 5.52577 1471.18 6.73577 1475.8 4.70577C1480.3 2.72577 1486.08 3.04577 1491.25 3.29577C1498.23 3.62577 1505.16 4.87577 1512.12 5.63577C1512.87 5.71577 1513.67 5.06577 1514.47 4.91577C1517.14 4.43577 1519.82 3.72577 1522.51 3.64577C1528.54 3.47577 1534.58 3.64577 1540.62 3.63577C1542.21 3.63577 1543.82 3.32577 1545.4 3.41577C1550.8 3.69577 1556.27 4.83577 1561.56 4.26577C1570.2 3.33577 1578.29 4.75577 1586.12 7.17577C1588.16 6.01577 1590.16 4.00577 1592.31 3.82577C1600.02 3.17577 1607.78 3.04577 1615.53 2.96577C1617.21 2.94577 1618.97 3.83577 1620.57 4.56577C1624.49 6.37577 1628.27 8.48577 1632.26 10.1258C1633.15 10.4958 1634.86 9.71577 1635.8 8.97577C1639.21 6.29577 1642.68 5.52577 1646.93 7.02577C1651.36 8.59577 1655.56 6.48577 1656.42 2.93577C1663.52 1.25577 1670.53 6.45577 1677.65 2.97577C1678.19 2.71577 1679.21 3.40577 1680 3.64577ZM970 21.7358C970.38 22.4058 970.76 23.0858 971.14 23.7558C976.52 23.0158 981.89 22.2458 987.28 21.5458C990.55 21.1258 991.43 18.6258 990.01 16.6258C988.24 14.1158 985.27 12.4458 982.79 10.4558C982.73 10.4158 982.32 10.8458 982.05 11.0258C980.36 12.1758 978.5 13.1258 977.02 14.4958C974.55 16.7658 972.32 19.3058 970 21.7358ZM829.38 8.93577C828.77 8.75577 828.16 8.56577 827.55 8.38577C824.88 9.94577 820.16 10.0558 821.67 14.7958C822.06 16.0258 826.06 16.1258 828.4 16.7458C828.73 14.1458 829.06 11.5358 829.38 8.93577ZM189.12 21.9558C187.28 19.7158 186.46 15.6858 182.4 17.9258C181.1 18.6458 179.84 22.4358 180.32 22.8658C183.19 25.4158 186.25 24.7058 189.12 21.9558ZM598.34 17.2858C600.33 15.3658 601.8 14.1158 603.07 12.6758C603.81 11.8358 604.22 10.7158 604.78 9.72577C603.72 9.54577 602.6 9.03577 601.62 9.24577C599.58 9.68577 597.61 10.5158 594.93 11.4058C596.16 13.5058 597.31 15.4958 598.34 17.2858ZM752.48 19.0158C757.11 18.7658 759.12 15.8558 758.1 10.8958C753.04 11.1258 751.43 13.4458 752.48 19.0158ZM251.92 14.5058C251.87 14.9258 251.83 15.3558 251.78 15.7758C258.29 18.5758 262.62 17.0258 264.96 10.9258C260.12 8.54577 259.69 12.9058 258.3 14.9758C256.05 14.8058 253.99 14.6558 251.92 14.5058ZM499.06 17.3258C498.44 17.1958 497.83 17.0658 497.21 16.9458C496.19 18.5058 495.18 20.0558 494.16 21.6158C496.69 22.4458 500.64 24.7158 501.5 23.8758C505.76 19.6758 496.57 21.3958 499.06 17.3258ZM1221.14 9.33577C1221.09 8.93577 1221.03 8.53577 1220.98 8.13577C1218.31 8.13577 1215.64 8.13577 1211.99 8.13577C1213.54 10.2758 1214.42 11.4958 1215.33 12.7558C1217.58 11.4358 1219.36 10.3858 1221.14 9.33577Z" fill="#FEF3E1"/>
</svg>
