<svg width="320" height="20" viewBox="0 0 320 20" fill="none" xmlns="http://www.w3.org/2000/svg">
<g clip-path="url(#clip0_8393_41705)">
<path d="M807 5.10635C807 25.4028 807 45.6935 807 65.9957C479 66.0014 151 66.0014 -177 65.9957C-177 47.6116 -177 29.2333 -177 10.855C-173.322 8.83863 -169.544 8.58442 -165.596 10.0866C-164.917 10.3466 -163.985 10.3697 -163.294 10.1444C-158.685 8.63064 -154.075 8.6422 -149.378 9.75148C-148.212 10.0288 -146.625 10.1212 -145.699 9.56082C-142.443 7.57913 -139.104 10.7625 -135.912 9.19684C-135.766 9.12173 -135.209 9.73993 -134.911 10.0866C-133.435 11.7967 -131.543 11.8892 -129.745 10.4275C-129.053 9.86126 -128.093 9.04662 -127.39 9.1564C-124.912 9.54927 -122.376 11.011 -120.502 8.00667C-120.449 7.92579 -120.121 7.96045 -119.94 8.01245C-116.976 8.86752 -112.384 6.78761 -112.366 12.4149C-110.088 11.4674 -106.714 11.5136 -109.666 8.128C-109.414 7.90845 -109.268 7.67157 -109.122 7.67157C-104.465 7.70624 -99.8087 7.83912 -95.1581 7.79868C-90.6306 7.75824 -86.0971 7.5098 -81.5696 7.4347C-80.24 7.41159 -78.6761 7.2787 -77.6101 7.86801C-73.5511 10.1155 -69.539 8.58442 -65.4859 8.15111C-62.2527 7.80446 -58.8907 7.01294 -55.7864 7.54447C-52.4654 8.11644 -49.5779 7.11115 -46.5029 6.78184C-44.8746 6.60851 -43.2404 6.52762 -41.372 6.38896C-41.8699 7.24404 -42.1979 7.81023 -42.5259 8.37643C-42.438 8.63642 -42.3443 8.89641 -42.2564 9.15062C-38.6953 7.28448 -35.3274 6.56229 -31.2099 7.45781C-27.6019 8.24355 -23.4491 6.64318 -19.355 6.0712C-19.355 7.18048 -19.355 7.80446 -19.355 8.61909C-17.1586 7.96623 -15.1613 7.15737 -13.0879 6.8165C-10.9324 6.46407 -8.70672 6.56229 -6.50443 6.45829C-7.342 7.85068 -8.98785 8.51509 -9.22214 9.49727C-9.60285 11.0803 -9.42129 13.0216 -8.80629 14.5526C-7.81057 17.0369 -5.538 15.2344 -3.86872 15.3268C-3.20686 15.3615 -2.48057 14.3157 -1.20957 13.3104C-4.09714 12.8482 -6.15885 12.9465 -6.01828 10.0692C-5.88357 7.28448 -4.62429 6.0712 -1.889 6.24453C0.073142 6.37163 2.02942 6.75873 3.97985 6.74717C8.00371 6.72406 12.1037 6.22719 15.1084 10.0172C14.0248 10.7337 12.8476 11.5136 11.6468 12.3051C13.8316 16.6556 17.381 14.5468 20.8601 13.8189C19.9347 12.5651 18.7047 11.6581 17.6739 10.5719C17.135 10.0057 16.4614 8.69997 16.6781 8.45732C17.668 7.37114 18.9507 6.55074 20.128 5.63789C20.4033 5.74188 20.6844 5.84588 20.9597 5.95565C21.0359 8.11067 18.16 11.2363 22.8809 11.7678C19.2377 15.3672 24.3861 14.9744 24.4389 16.5401C26.5416 15.8872 28.4276 15.3037 29.6459 14.9224C30.3663 11.9758 31.0047 9.38172 31.7251 6.44096C40.4933 13.5589 45.0853 16.7307 52.2954 13.6224C49.033 14.0269 46.5613 13.3855 46.3621 9.1564C48.1837 8.65953 50.1166 8.13378 52.272 7.55025C51.9674 10.2715 53.3556 10.4332 55.4466 9.87281C56.8757 9.49149 58.3927 9.4395 59.3943 9.30661C59.816 10.751 59.8511 12.542 60.4896 12.7789C64.8941 14.4197 69.4451 14.0037 73.9844 13.0447C71.6943 12.1087 69.3983 11.1728 67.0496 10.2137C69.1289 6.37741 69.9898 6.28497 73.8087 6.81072C77.4167 7.30759 81.3293 7.85646 84.744 6.9956C88.2466 6.11164 90.7417 7.21515 93.6117 8.42843C94.2267 8.15111 94.9237 7.62535 95.6851 7.53291C97.5887 7.30181 99.5157 7.22093 101.437 7.17471C101.982 7.16315 102.696 7.29604 103.053 7.64269C105.39 9.91325 107.517 9.99992 109.461 6.90894C111.095 8.18577 112.788 9.09862 113.883 10.4737C115.102 11.9989 116.191 12.0972 117.819 11.3923C120.186 10.3639 122.575 9.37594 125.041 8.62487C125.65 8.43998 127.079 9.09862 127.226 9.6186C127.431 10.3292 126.974 11.4443 126.429 12.0856C125.808 12.8136 124.783 13.2007 123.934 13.738C123.975 14.0731 124.022 14.4082 124.063 14.7433C125.574 14.8993 127.085 15.0495 128.596 15.2055C129.329 15.2806 130.348 15.1072 130.752 15.5117C133.37 18.1578 136.451 16.8578 139.35 16.5112C140.024 16.4303 140.563 15.2632 141.166 14.593C140.445 13.9922 139.819 13.1024 138.987 12.8482C137.57 12.4091 136.023 12.3571 134.418 12.126C136.258 10.8897 137.857 9.83815 139.438 8.76353C142.255 6.84539 144.417 7.20359 147.187 9.42794C148.95 10.8434 151.141 11.7332 153.29 12.9465C152.95 11.3461 152.406 9.61282 152.593 9.53194C154.69 8.63642 156.049 6.00765 158.808 6.72984C159.534 6.9205 160.412 7.41736 160.746 8.024C162.416 11.063 162.773 11.2536 165.889 9.24306C167.494 8.20311 168.882 7.35959 170.147 9.68215C171.652 6.64317 174.212 5.52811 177 5.33168C182.002 4.97925 187.039 5.12369 192.047 4.82903C193.898 4.71926 194.882 4.80592 194.524 6.97249C194.437 7.51558 195.034 8.16266 195.315 8.76353C195.766 8.16266 196.194 7.54447 196.674 6.97249C197.154 6.39474 197.64 5.45301 198.214 5.3779C201.014 5.00814 204.031 7.23248 206.672 4.66148C206.754 4.58638 207.041 4.73659 207.229 4.73659C210.122 4.80015 213.086 3.57531 215.891 5.557C216.518 6.00187 217.924 5.29701 218.978 5.26235C221.936 5.15257 224.9 4.96769 227.852 5.11213C229.644 5.19879 231.547 6.74139 232.883 4.23973C232.971 4.07796 233.738 4.25706 234.189 4.29172C238.465 4.59215 242.74 5.10058 247.016 5.12369C249.418 5.14102 251.807 4.14729 254.232 3.99129C260.493 3.58109 266.766 3.20555 273.039 3.15355C277.139 3.11889 281.321 2.54113 285.357 4.14729C286.323 4.5286 287.676 3.97396 288.707 3.86419C294.26 7.99512 299.613 3.16511 304.199 3.61575C305.441 4.36105 306.144 5.15257 306.788 5.10635C308.967 4.96192 311.14 4.59793 313.278 4.15884C314.479 3.91041 315.668 2.89356 316.775 3.00911C319.487 3.30377 322.134 4.08951 324.828 4.59215C325.35 4.69037 325.947 4.41305 326.503 4.2975C327.804 4.02596 329.092 3.66197 330.404 3.50598C331.699 3.35576 333.028 3.29799 334.317 3.41354C336.472 3.6042 338.61 3.99129 340.76 4.22817C341.726 4.33217 342.71 4.32061 343.677 4.27439C344.151 4.25128 344.614 4.00285 345.088 3.89885C348.099 3.2171 350.67 4.09529 352.632 6.33119C356.047 3.11311 355.391 3.70242 359.631 4.33794C361.857 4.67304 364.153 5.01969 366.373 4.84059C368.862 4.64415 371.24 4.14151 373.683 5.25657C374.368 5.56856 375.481 5.06591 376.359 4.82903C376.992 4.65571 377.578 4.05485 378.175 4.0664C381.221 4.1184 384.261 4.30906 387.482 4.45349C387.605 5.2739 387.716 6.05387 387.88 7.1516C389.058 6.88005 390.012 6.65473 391.395 6.33119C390.551 5.44145 390.065 4.93303 388.882 3.69086C400.145 3.69086 410.706 3.69086 421.249 3.69086C421.582 5.16413 421.787 6.06542 422.057 7.24982C423.673 6.90894 425.167 6.57962 426.666 6.27341C428.74 5.85743 430.813 5.45301 432.893 5.04858C434.995 4.63837 437.098 4.23395 439.201 3.82952C439.939 3.68508 440.688 3.40198 441.415 3.43665C445.843 3.65042 450.265 4.05484 454.693 4.1704C458.377 4.26861 462.073 3.93352 465.763 4.03751C468.516 4.1184 471.837 2.8589 473.248 6.9205C473.711 8.2551 475.041 7.81023 475.995 6.66051C477.893 4.37261 480.312 3.41932 483.346 4.32061C483.815 4.45927 484.435 4.0144 484.974 4.03173C486.269 4.07796 487.569 4.16462 488.84 4.38416C489.42 4.48238 489.953 5.2219 490.48 5.19302C494.486 4.96192 498.493 4.62682 502.493 4.28595C505.053 4.07218 507.612 3.79486 510.172 3.54642C510.037 3.85841 509.902 4.17617 509.768 4.48816C510.781 5.94987 511.689 7.50403 512.889 8.80397C513.141 9.07551 515.139 8.41687 515.139 8.18577C515.139 6.90316 514.77 5.62055 514.465 4.02018C516.679 4.02018 518.969 4.09529 521.259 4.00285C525.558 3.82952 529.852 3.44821 534.145 3.35576C537.519 3.28643 540.904 3.44821 544.272 3.66197C545.151 3.71975 546.006 4.34372 546.837 4.76548C549.227 5.97298 551.605 7.20937 553.239 8.05289C553.802 9.45105 554.048 10.5257 554.657 11.3403C554.914 11.687 556.361 11.7447 556.525 11.4847C557 10.7337 557.357 9.73415 557.281 8.8733C557.064 6.42363 558.751 4.21662 561.123 4.21662C563.267 4.21662 565.416 4.29172 567.56 4.32639C572.193 4.38994 576.826 4.41305 581.453 4.56327C582.015 4.5806 582.56 5.26812 583.111 5.65522C583.661 6.04231 584.3 6.83961 584.733 6.74139C585.401 6.5854 586.209 5.93254 586.455 5.30279C587.152 3.51754 588.124 3.28643 589.706 4.23973C592.271 5.79388 594.239 6.92627 598.046 5.57433C603.072 3.78908 609.134 3.6042 614.493 4.4015C617.539 4.85214 620.655 4.20506 623.882 5.3259C626.905 6.37163 629.734 7.16315 632.229 9.23728C633.435 10.2368 635.175 10.6239 636.979 11.4212C637.166 7.23248 637.143 7.3307 634.144 6.71251C633.248 6.52762 632.492 5.65522 631.678 5.0948C631.842 4.80015 632 4.50549 632.164 4.21084C633.734 4.64415 635.31 5.07747 637.412 5.661C640.985 5.23924 645.249 4.70193 649.519 4.25128C650.152 4.18195 650.843 4.45927 651.487 4.65571C657.438 6.44674 663.377 4.83481 669.334 4.74237C672.977 4.68459 676.673 5.0948 680.263 5.74766C682.706 6.19253 684.691 6.89161 687.397 5.71877C690.033 4.57482 693.418 4.7597 696.446 4.90414C700.535 5.0948 704.594 5.81699 708.67 6.25608C709.11 6.3023 709.578 5.92676 710.047 5.8401C711.611 5.56278 713.18 5.15257 714.756 5.10635C718.288 5.00814 721.825 5.10635 725.363 5.10058C726.294 5.10058 727.237 4.92147 728.163 4.97347C731.326 5.13524 734.53 5.79388 737.628 5.46456C742.689 4.92725 747.427 5.74766 752.013 7.14582C753.208 6.47563 754.379 5.31434 755.639 5.21035C760.155 4.83481 764.7 4.7597 769.239 4.71348C770.223 4.70193 771.254 5.21613 772.191 5.63789C774.487 6.68362 776.701 7.90268 779.038 8.85019C779.559 9.06396 780.561 8.61331 781.111 8.18577C783.109 6.6374 785.141 6.19253 787.63 7.05916C790.225 7.96623 792.685 6.74717 793.189 4.69615C797.347 3.72553 801.453 6.72984 805.624 4.71926C805.94 4.56904 806.537 4.96769 807 5.10635ZM391.143 15.5579C391.365 15.945 391.588 16.3379 391.811 16.725C394.962 16.2974 398.107 15.8525 401.264 15.4481C403.179 15.2055 403.695 13.7611 402.863 12.6056C401.826 11.1554 400.087 10.1906 398.634 9.04085C398.599 9.01774 398.359 9.26617 398.201 9.37017C397.211 10.0346 396.121 10.5834 395.255 11.375C393.808 12.6865 392.502 14.154 391.143 15.5579ZM308.78 8.16266C308.422 8.05867 308.065 7.9489 307.708 7.8449C306.144 8.74619 303.379 8.80975 304.264 11.5483C304.492 12.2589 306.835 12.3167 308.206 12.6749C308.399 11.1728 308.592 9.66482 308.78 8.16266ZM-66.2297 15.685C-67.3074 14.3908 -67.7877 12.0625 -70.1657 13.3567C-70.9271 13.7726 -71.6651 15.9623 -71.384 16.2108C-69.703 17.684 -67.9107 17.2738 -66.2297 15.685ZM173.456 12.9869C174.622 11.8776 175.483 11.1554 176.227 10.3235C176.66 9.83815 176.9 9.19106 177.228 8.61909C176.607 8.51509 175.951 8.22044 175.377 8.34177C174.183 8.59598 173.029 9.07551 171.459 9.58971C172.179 10.803 172.853 11.9527 173.456 12.9869ZM263.738 13.9864C266.45 13.842 267.627 12.1607 267.03 9.29506C264.066 9.42794 263.123 10.7683 263.738 13.9864ZM-29.4469 11.3807C-29.4761 11.6234 -29.4996 11.8718 -29.5289 12.1145C-25.7159 13.7322 -23.1797 12.8367 -21.8091 9.31239C-24.644 7.93734 -24.8959 10.4563 -25.71 11.6523C-27.0279 11.5541 -28.2344 11.4674 -29.4469 11.3807ZM115.307 13.01C114.943 12.9349 114.586 12.8598 114.223 12.7905C113.626 13.6918 113.034 14.5873 112.437 15.4886C113.918 15.9681 116.232 17.2796 116.736 16.7943C119.231 14.3677 113.848 15.3615 115.307 13.01ZM538.239 8.39376C538.21 8.16266 538.175 7.93156 538.145 7.70046C536.582 7.70046 535.018 7.70046 532.88 7.70046C533.788 8.93685 534.303 9.64171 534.836 10.3697C536.154 9.60704 537.197 9.0004 538.239 8.39376Z" fill="#FEF3E1"/>
</g>
<defs>
<clipPath id="clip0_8393_41705">
<rect width="320" height="20" fill="white"/>
</clipPath>
</defs>
</svg>
