<svg viewBox="0 0 19 18" fill="none" xmlns="http://www.w3.org/2000/svg">
<path fill-rule="evenodd" clip-rule="evenodd" d="M17.5066 0H1.49343C0.94465 0 0.5 0.444714 0.5 0.993424V17.0065C0.5 17.5552 0.94465 18 1.49343 18H10.1144V11.0294H7.76864V8.31287H10.1144V6.30949C10.1144 3.98462 11.5343 2.71866 13.6083 2.71866C14.6017 2.71866 15.4556 2.79258 15.7045 2.82563V5.2553L14.266 5.25598C13.1381 5.25598 12.9197 5.79194 12.9197 6.57845V8.31287H15.6097L15.2594 11.0294H12.9197V18H17.5066C18.0551 18 18.5 17.5552 18.5 17.0065V0.993424C18.5 0.444714 18.0551 0 17.5066 0Z" fill="#282220"/>
</svg>
