<svg viewBox="0 0 19 19" fill="none" xmlns="http://www.w3.org/2000/svg">
<path d="M9.68538 7.86977H18.3565C18.4522 8.40399 18.5 8.91428 18.5 9.40066C18.5 11.1309 18.1372 12.6757 17.4116 14.0352C16.686 15.3947 15.6515 16.4571 14.308 17.2226C12.9645 17.988 11.4236 18.3708 9.68538 18.3708C8.43356 18.3708 7.24153 18.1296 6.1093 17.6472C4.97708 17.1648 4.00033 16.513 3.17907 15.6917C2.35781 14.8704 1.70598 13.8937 1.22359 12.7615C0.741196 11.6292 0.5 10.4372 0.5 9.18538C0.5 7.93355 0.741196 6.74153 1.22359 5.6093C1.70598 4.47708 2.35781 3.50033 3.17907 2.67907C4.00033 1.85781 4.97708 1.20598 6.1093 0.723588C7.24153 0.241196 8.43356 0 9.68538 0C12.0774 0 14.1306 0.801329 15.8449 2.40399L13.3452 4.80797C12.3645 3.85914 11.1445 3.38472 9.68538 3.38472C8.65681 3.38472 7.70598 3.64385 6.83289 4.16213C5.9598 4.6804 5.26811 5.38405 4.75781 6.27309C4.24751 7.16213 3.99236 8.13289 3.99236 9.18538C3.99236 10.2379 4.24751 11.2086 4.75781 12.0977C5.26811 12.9867 5.9598 13.6904 6.83289 14.2086C7.70598 14.7269 8.65681 14.986 9.68538 14.986C10.3791 14.986 11.0169 14.8904 11.599 14.699C12.1811 14.5076 12.6595 14.2684 13.0342 13.9814C13.409 13.6944 13.7359 13.3674 14.0149 13.0007C14.294 12.6339 14.4993 12.287 14.6309 11.9601C14.7625 11.6332 14.8522 11.3223 14.9 11.0272H9.68538V7.86977Z" fill="#282220"/>
</svg>
