<svg viewBox="0 0 124 36" fill="none" xmlns="http://www.w3.org/2000/svg">
<g clip-path="url(#clip0_8768_57513)">
<path d="M39.823 13.7626C39.3443 13.6256 38.8648 13.6842 38.4376 13.9328C38.391 13.9596 38.3465 13.9907 38.3028 14.021C38.3529 13.3552 38.3628 12.7232 38.3374 12.0785C38.2519 9.86631 37.7096 7.10474 36.445 5.99121C36.0397 5.63392 35.5744 5.46799 35.0978 5.50965C34.5322 5.55978 34.0534 5.84223 33.7131 6.32802C33.7046 6.34003 33.6968 6.35415 33.6884 6.36686C33.5514 5.97638 33.4137 5.61133 33.2817 5.26957C32.4739 3.18727 31.0708 0.746273 29.552 0.143261C29.0592 -0.0523303 28.5712 -0.0473875 28.1398 0.158089C27.6441 0.393927 27.3017 0.806998 27.1498 1.3507C27.0482 1.71787 27.0411 2.10764 27.0962 2.49388C25.7186 1.73129 24.1729 1.27232 23.4873 1.13039C20.1665 0.441236 16.4164 1.59007 15.9164 3.45065C15.747 4.0812 15.9327 4.72376 16.427 5.21379C16.6169 5.40232 16.8414 5.55837 17.0865 5.68194C16.708 5.94955 16.3549 6.256 16.0337 6.59846C16.0125 6.61541 15.992 6.63377 15.9729 6.65354C14.0474 8.63698 12.6613 11.705 11.8472 14.8408C10.3015 12.4048 8.53342 10.9537 6.58316 10.5244C4.87792 10.1495 3.52502 10.7045 2.99544 11.0907C2.63604 11.352 2.57602 11.6739 2.57249 11.842C2.56119 12.3525 2.98203 12.69 3.12113 12.8009C4.14851 13.6228 5.93566 15.3753 6.36074 17.8728C6.54503 18.956 6.56551 20.0872 6.5874 21.2847C6.64106 24.2038 6.70108 27.5118 9.4337 30.4634C11.0457 32.2053 13.2099 33.8477 18.0856 34.068L18.1032 34.0687C18.5785 34.0899 19.848 34.1408 21.3626 34.1408C23.5706 34.1408 26.3011 34.0341 27.8552 33.5766C32.4887 32.2152 34.7701 29.9931 34.9954 29.765C37.5317 27.4434 39.5194 24.143 40.3137 20.9317C41.4364 16.3921 41.2853 14.1806 39.823 13.7626ZM16.8012 7.57712C16.8308 7.55453 16.8584 7.52911 16.8845 7.50086C17.9578 6.32238 19.4872 5.64663 21.0802 5.64663C21.6429 5.64663 22.1951 5.73207 22.7233 5.89236L23.1893 6.05547C23.9985 6.37957 24.7321 6.88867 25.3239 7.55453C25.3288 7.55947 25.3337 7.56512 25.3387 7.57077C28.2394 10.6084 29.737 16.3258 29.9001 20.3527C29.9008 20.3604 29.9015 20.3689 29.9022 20.3767C29.9213 20.6174 29.9312 20.8589 29.9312 21.0948C29.9312 25.9754 25.9608 29.9458 21.0802 29.9458C16.2003 29.9458 12.2299 25.9754 12.2299 21.0969C12.2447 15.3464 14.5304 9.96799 16.8012 7.57712ZM39.1127 20.6351C38.3734 23.6233 36.5177 26.6998 34.148 28.8633C34.1389 28.8718 34.129 28.881 34.1205 28.8902C33.3883 29.6436 31.0638 31.3446 27.5064 32.3896C25.0224 33.1204 18.8545 32.8641 18.159 32.833L18.1407 32.8316C13.712 32.6318 11.7751 31.1716 10.341 29.6231C7.9297 27.0176 7.87603 24.0915 7.82449 21.2621C7.8026 20.0716 7.78071 18.8402 7.58018 17.6652C7.10285 14.8592 5.19072 12.8997 4.01153 11.9303C4.4592 11.7276 5.28887 11.5066 6.31766 11.7332C8.12105 12.1294 9.85313 13.7386 11.3268 16.3858L11.451 16.6082C11.1509 18.1779 10.9963 19.7165 10.9928 21.0948C10.9928 26.6575 15.5182 31.1829 21.0802 31.1829C26.6429 31.1829 31.1683 26.6575 31.1683 21.0948C31.1683 20.83 31.1577 20.5595 31.1358 20.2898C31.0391 17.9272 30.5512 15.3421 29.7624 13.0078C28.8763 10.3839 27.6582 8.21191 26.2411 6.72415C25.5293 5.92555 24.6488 5.31406 23.6786 4.91935L23.6801 4.91652L23.625 4.89746C23.4569 4.83038 23.286 4.77177 23.1131 4.71811L23.0961 4.71175C21.8745 4.28456 20.4842 4.28244 18.964 4.70469C18.3073 4.88757 17.616 4.65032 17.2976 4.3354C17.0307 4.07061 17.0914 3.84607 17.1112 3.77193C17.3407 2.91825 20.1495 1.70093 23.2359 2.34136C24.5825 2.62098 27.4365 3.70061 28.2542 5.04433L28.5762 5.5732L28.5974 5.55978C28.9151 6.07877 29.2265 6.6486 29.4722 7.28833C29.7871 8.10882 31.0115 11.2376 31.1683 12.3144C31.1683 12.3144 31.7642 10.4001 30.5702 6.97693C30.3005 6.20234 29.9693 5.5273 29.6304 4.93135L29.6325 4.92923L29.5683 4.82402C29.3345 4.41943 29.098 4.05225 28.877 3.71615C28.4208 3.02346 28.2012 2.18814 28.3418 1.68327C28.3968 1.48556 28.502 1.35564 28.6722 1.27515C28.7456 1.23984 28.8699 1.20312 29.0952 1.2928C30.0124 1.65715 31.2594 3.47678 32.1279 5.71795C32.4668 6.59281 32.8961 7.6322 33.2365 8.84811C33.2619 9.0324 33.2972 9.2167 33.3459 9.39887C33.8119 11.1514 33.8134 12.9386 33.7554 14.4525C33.6495 17.2522 33.1722 18.6107 32.9498 19.2737C32.9237 19.3514 33.0289 19.403 33.0741 19.3345C33.5796 18.5697 34.4178 16.9831 34.7779 14.6156C35.0286 12.9711 35.0547 11.0095 34.5413 9.08042C34.3394 8.32136 34.4157 7.48109 34.7263 7.03766C34.8958 6.79546 35.0815 6.7531 35.2065 6.7418C35.2552 6.73757 35.4056 6.72415 35.6273 6.91974C36.4026 7.60254 37.0092 9.74345 37.1017 12.1265C37.1631 13.7266 37.1087 15.1515 36.6441 17.3094C36.2049 18.9037 35.6231 20.3082 35.049 21.4641C33.9856 23.605 32.541 25.3872 32.4965 25.443C32.5501 25.4246 34.273 24.8025 35.9324 22.2704C36.8009 20.9444 37.4999 19.0647 38.009 16.9768C38.2477 15.9967 38.6502 15.2405 39.059 15.0025C39.196 14.9227 39.3266 14.9072 39.4827 14.9524C39.5222 14.9637 40.4345 15.2906 39.1127 20.6351Z" fill="#282220"/>
<path d="M39.1128 20.6351C38.3736 23.6234 36.5179 26.6999 34.1482 28.8634C34.1391 28.8718 34.1292 28.881 34.1207 28.8902C33.3885 29.6436 31.064 31.3446 27.5066 32.3897C25.0225 33.1205 18.8547 32.8642 18.1592 32.8331L18.1409 32.8317C13.7122 32.6318 11.7753 31.1716 10.3412 29.6231C7.92989 27.0176 7.87623 24.0915 7.82468 21.2622C7.80279 20.0717 7.7809 18.8402 7.58037 17.6653C7.10304 14.8592 5.19091 12.8998 4.01172 11.9303C4.45939 11.7276 5.28906 11.5066 6.31785 11.7333C8.12124 12.1294 9.85332 13.7386 11.327 16.3858L11.4512 16.6082C11.1511 18.1779 10.9965 19.7165 10.993 21.0948C10.993 26.6575 15.5184 31.1829 21.0804 31.1829C26.6431 31.1829 31.1685 26.6575 31.1685 21.0948C31.1685 20.83 31.1579 20.5596 31.136 20.2899C31.0393 17.9272 30.5513 15.3422 29.7626 13.0078C28.8765 10.3839 27.6584 8.21195 26.2413 6.72419C25.5295 5.92558 24.649 5.3141 23.6788 4.91939L23.6802 4.91656L23.6252 4.8975C23.4571 4.83042 23.2862 4.77181 23.1132 4.71815L23.0963 4.71179C21.8747 4.2846 20.4844 4.28248 18.9642 4.70473C18.3075 4.88761 17.6162 4.65036 17.2978 4.33544C17.0309 4.07065 17.0916 3.84611 17.1114 3.77197C17.3408 2.91829 20.1497 1.70097 23.2361 2.3414C24.5826 2.62102 27.4367 3.70065 28.2544 5.04437L28.5764 5.57324L28.5975 5.55982C28.9153 6.07881 29.2267 6.64864 29.4724 7.28837C29.7873 8.10886 31.0117 11.2376 31.1685 12.3144C31.1685 12.3144 31.7644 10.4002 30.5704 6.97697C30.3007 6.20238 29.9695 5.52734 29.6306 4.93139L29.6327 4.92927L29.5684 4.82406C29.3347 4.41947 29.0982 4.05229 28.8772 3.71619C28.421 3.0235 28.2014 2.18818 28.3419 1.68331C28.397 1.4856 28.5022 1.35568 28.6724 1.27518C28.7458 1.23988 28.8701 1.20316 29.0954 1.29284C30.0126 1.65719 31.2596 3.47682 32.1281 5.71799C32.467 6.59285 32.8963 7.63224 33.2367 8.84815C33.2621 9.03244 33.2974 9.21673 33.3461 9.39891C33.8121 11.1515 33.8135 12.9386 33.7556 14.4525C33.6497 17.2522 33.1724 18.6107 32.95 19.2738C32.9238 19.3514 33.0291 19.403 33.0742 19.3345C33.5798 18.5698 34.418 16.9832 34.7781 14.6156C35.0287 12.9711 35.0549 11.0095 34.5415 9.08046C34.3396 8.3214 34.4158 7.48113 34.7265 7.0377C34.896 6.7955 35.0817 6.75314 35.2067 6.74184C35.2554 6.7376 35.4058 6.72419 35.6275 6.91978C36.4028 7.60258 37.0094 9.74349 37.1019 12.1266C37.1633 13.7266 37.1089 15.1515 36.6443 17.3094C36.2051 18.9038 35.6233 20.3082 35.0492 21.4641C33.9858 23.605 32.5411 25.3872 32.4967 25.443C32.5503 25.4246 34.2732 24.8026 35.9326 22.2705C36.8011 20.9444 37.5001 19.0648 38.0092 16.9768C38.2479 15.9967 38.6503 15.2405 39.0592 15.0026C39.1962 14.9228 39.3268 14.9072 39.4828 14.9524C39.5224 14.9637 40.4347 15.2906 39.1128 20.6351Z" fill="#F9AA29"/>
<path d="M29.9318 21.0948C29.9318 25.9754 25.9614 29.9458 21.0808 29.9458C16.2009 29.9458 12.2305 25.9754 12.2305 21.0969C12.2453 15.3464 14.531 9.96802 16.8018 7.57716C16.8314 7.55456 16.859 7.52914 16.8851 7.5009C17.9584 6.32241 19.4878 5.64667 21.0808 5.64667C21.6435 5.64667 22.1957 5.73211 22.7239 5.89239L23.1899 6.0555C23.9991 6.3796 24.7327 6.8887 25.3245 7.55456C25.3294 7.5595 25.3343 7.56515 25.3393 7.5708C28.24 10.6085 29.7376 16.3258 29.9007 20.3527C29.9014 20.3605 29.9021 20.3689 29.9028 20.3767C29.9219 20.6175 29.9318 20.859 29.9318 21.0948Z" fill="#FBECD5"/>
<path d="M46.2012 18.6616C46.2012 17.9414 46.288 17.2219 46.461 16.5016C46.634 15.7814 46.9108 15.1353 47.2907 14.562C47.6706 13.9886 48.1634 13.5219 48.7707 13.1625C49.3772 12.8024 50.1137 12.6223 50.9801 12.6223C51.4729 12.6223 51.9065 12.712 52.28 12.892C52.6528 13.0721 52.9664 13.3086 53.2198 13.6017C53.4726 13.8954 53.6626 14.2386 53.7897 14.6312C53.9161 15.0245 53.9796 15.4347 53.9796 15.8612C53.9796 16.5412 53.8229 17.2007 53.5093 17.8411C53.1958 18.4809 52.7757 19.0443 52.2497 19.5308C51.7229 20.0173 51.1199 20.3838 50.4399 20.6309C49.7599 20.8781 49.0665 20.9346 48.3604 20.8011C48.3739 21.1881 48.5038 21.498 48.7502 21.7311C48.9966 21.9648 49.2932 22.1413 49.6399 22.2606C49.9866 22.3807 50.346 22.4576 50.7195 22.4908C51.0924 22.524 51.4256 22.541 51.7194 22.541C52.0258 22.541 52.3125 22.5141 52.5794 22.4612C52.8456 22.4082 53.1125 22.3482 53.3794 22.2811C53.6456 22.2147 53.9161 22.1547 54.1893 22.1011C54.4626 22.0481 54.7521 22.0213 55.0592 22.0213C55.1793 22.0213 55.2993 22.0283 55.4194 22.041C55.5394 22.0545 55.6524 22.0848 55.759 22.1307C55.8656 22.1773 55.9518 22.2507 56.0188 22.351C56.0852 22.4513 56.1191 22.5741 56.1191 22.721C56.1191 22.9745 56.0259 23.1842 55.8395 23.3509C55.6524 23.5175 55.4158 23.6608 55.1299 23.7809C54.8432 23.9009 54.5268 23.9906 54.1801 24.0506C53.8334 24.1106 53.4966 24.1572 53.1704 24.1904C52.8435 24.2236 52.5434 24.2434 52.2708 24.2504C51.9976 24.2568 51.7942 24.2603 51.6608 24.2603C50.8078 24.2603 50.041 24.124 49.361 23.8501C48.681 23.5768 48.1077 23.1969 47.6409 22.7104C47.1742 22.2239 46.8176 21.6371 46.5712 20.9508C46.324 20.2652 46.2012 19.5019 46.2012 18.6616ZM48.3209 17.3617C48.3209 17.8284 48.3837 18.1688 48.5108 18.3813C48.6372 18.5945 48.9472 18.7012 49.4408 18.7012C49.7875 18.7012 50.1271 18.6383 50.4604 18.5112C50.7937 18.3848 51.0966 18.2083 51.3706 17.9816C51.6438 17.755 51.8606 17.4888 52.0202 17.1816C52.1805 16.8752 52.2602 16.5419 52.2602 16.1818C52.2602 15.982 52.2433 15.7751 52.2101 15.5618C52.1769 15.3486 52.107 15.1516 52.0004 14.9722C51.8938 14.7922 51.7568 14.646 51.5902 14.5323C51.4235 14.4193 51.2067 14.3622 50.9405 14.3622C50.5409 14.3622 50.1772 14.4518 49.851 14.6319C49.5241 14.8119 49.248 15.045 49.0214 15.3316C48.7947 15.6183 48.6217 15.9382 48.5017 16.2912C48.3809 16.6457 48.3209 17.0023 48.3209 17.3617Z" fill="#282220"/>
<path d="M62.5188 34.8596C63.2652 34.8596 63.9318 34.7226 64.5185 34.4494C65.1053 34.1761 65.6017 33.8026 66.0084 33.3295C66.4151 32.8564 66.7286 32.3162 66.9482 31.7097C67.1685 31.1031 67.278 30.4733 67.278 29.8202C67.278 29.4869 67.261 29.047 67.2279 28.5005C67.1947 27.9539 67.1445 27.3608 67.0782 26.7204C67.0111 26.0806 66.9151 25.4268 66.788 24.7609C66.6609 24.0944 66.5048 23.4645 66.3177 22.8714C66.1306 22.2783 65.9011 21.7586 65.6278 21.3116C65.3546 20.8654 65.0382 20.5483 64.6781 20.3619C64.3314 20.6288 63.9911 20.8717 63.6585 21.092C63.3252 21.3123 62.9785 21.4952 62.6184 21.6421C62.2583 21.7889 61.8848 21.9054 61.4985 21.9923C61.1116 22.0791 60.6985 22.1222 60.2586 22.1222C59.6853 22.1222 59.1952 22.0693 58.7885 21.9619C58.3818 21.8553 58.0414 21.6753 57.7689 21.4218C57.4956 21.169 57.2923 20.835 57.1588 20.4219C57.0254 20.0088 56.959 19.4892 56.959 18.8621C56.959 18.4222 57.0656 17.9922 57.2789 17.5721C57.4921 17.152 57.7752 16.7594 58.129 16.3922C58.4821 16.0257 58.8817 15.6889 59.3287 15.3825C59.7749 15.076 60.2353 14.8091 60.7084 14.5824C61.1815 14.3558 61.6482 14.1828 62.1079 14.0627C62.5676 13.9427 62.9778 13.8827 63.3379 13.8827C63.6846 13.8827 63.9706 13.8926 64.198 13.9123C64.4246 13.9321 64.6181 13.9858 64.7777 14.0726C64.938 14.1595 65.0742 14.2929 65.1879 14.4723C65.3009 14.6523 65.411 14.8959 65.5177 15.2024C65.8241 16.2425 66.1779 17.3624 66.5775 18.562C66.9772 19.7617 67.3571 20.9953 67.7172 22.2613C68.0773 23.5281 68.3802 24.804 68.6274 26.0905C68.8738 27.377 68.9973 28.6205 68.9973 29.8202C68.9973 30.8864 68.8477 31.7902 68.5476 32.5295C68.2475 33.2688 67.8542 33.876 67.3677 34.3491C66.8812 34.8222 66.3276 35.1858 65.7076 35.4386C65.0877 35.6914 64.4642 35.8552 63.8379 35.9287C63.2108 36.0021 62.6043 36.0183 62.0182 35.9788C61.4314 35.9385 60.9252 35.8616 60.4987 35.7486C60.0722 35.6349 59.7488 35.505 59.5285 35.3588C59.3082 35.212 59.2552 35.0891 59.3682 34.9888C59.4812 34.8886 59.7848 34.8187 60.2784 34.7791C60.7719 34.7396 61.519 34.7657 62.5188 34.8596ZM62.7992 15.5618C61.8127 15.775 61.0163 16.0716 60.4097 16.4515C59.8032 16.8314 59.3499 17.2381 59.0498 17.6716C58.7497 18.1052 58.5866 18.538 58.5597 18.9716C58.5329 19.4051 58.6127 19.7751 58.7998 20.0816C58.9862 20.3887 59.2559 20.6182 59.6097 20.7714C59.9628 20.9247 60.3659 20.9317 60.8193 20.7912C61.2726 20.6514 61.7555 20.3485 62.2689 19.881C62.7822 19.4143 63.2984 18.7209 63.8188 17.8016C63.8188 17.5749 63.8216 17.3285 63.8287 17.0616C63.835 16.7954 63.8117 16.5518 63.7588 16.3315C63.7051 16.1112 63.6055 15.9283 63.4587 15.7814C63.3118 15.6352 63.0922 15.5618 62.7992 15.5618Z" fill="#282220"/>
<path d="M74.097 34.8596C74.8433 34.8596 75.5099 34.7226 76.0967 34.4494C76.6834 34.1761 77.1798 33.8026 77.5865 33.3295C77.9933 32.8564 78.3068 32.3162 78.5264 31.7097C78.7467 31.1031 78.8561 30.4733 78.8561 29.8202C78.8561 29.4869 78.8392 29.047 78.806 28.5005C78.7728 27.9539 78.7227 27.3608 78.6563 26.7204C78.5892 26.0806 78.4932 25.4268 78.3661 24.7609C78.239 24.0944 78.0829 23.4645 77.8958 22.8714C77.7087 22.2783 77.4792 21.7586 77.2059 21.3116C76.9327 20.8654 76.6164 20.5483 76.2562 20.3619C75.9095 20.6288 75.5692 20.8717 75.2366 21.092C74.9033 21.3123 74.5566 21.4952 74.1965 21.6421C73.8364 21.7889 73.4629 21.9054 73.0766 21.9923C72.6897 22.0791 72.2766 22.1222 71.8367 22.1222C71.2634 22.1222 70.7733 22.0693 70.3666 21.9619C69.9599 21.8553 69.6196 21.6753 69.347 21.4218C69.0737 21.169 68.8704 20.835 68.7369 20.4219C68.6035 20.0088 68.5371 19.4892 68.5371 18.8621C68.5371 18.4222 68.6437 17.9922 68.857 17.5721C69.0702 17.152 69.3534 16.7594 69.7071 16.3922C70.0602 16.0257 70.4598 15.6889 70.9068 15.3825C71.3531 15.076 71.8134 14.8091 72.2865 14.5824C72.7596 14.3558 73.2263 14.1828 73.686 14.0627C74.1457 13.9427 74.5559 13.8827 74.9161 13.8827C75.2628 13.8827 75.5487 13.8926 75.7761 13.9123C76.0027 13.9321 76.1962 13.9858 76.3558 14.0726C76.5161 14.1595 76.6524 14.2929 76.766 14.4723C76.879 14.6523 76.9892 14.8959 77.0958 15.2024C77.4022 16.2425 77.756 17.3624 78.1557 18.562C78.5553 19.7617 78.9352 20.9953 79.2953 22.2613C79.6554 23.5281 79.9583 24.804 80.2055 26.0905C80.4519 27.377 80.5755 28.6205 80.5755 29.8202C80.5755 30.8864 80.4258 31.7902 80.1257 32.5295C79.8256 33.2688 79.4323 33.876 78.9458 34.3491C78.4593 34.8222 77.9057 35.1858 77.2857 35.4386C76.6658 35.6914 76.0423 35.8552 75.416 35.9287C74.789 36.0021 74.1824 36.0183 73.5963 35.9788C73.0096 35.9385 72.5033 35.8616 72.0768 35.7486C71.6503 35.6349 71.3269 35.505 71.1066 35.3588C70.8863 35.212 70.8334 35.0891 70.9463 34.9888C71.0593 34.8886 71.3629 34.8187 71.8565 34.7791C72.3508 34.7396 73.0971 34.7657 74.097 34.8596ZM74.3773 15.5618C73.3909 15.775 72.5944 16.0716 71.9878 16.4515C71.3813 16.8314 70.928 17.2381 70.6279 17.6716C70.3278 18.1052 70.1647 18.538 70.1378 18.9716C70.111 19.4051 70.1908 19.7751 70.3779 20.0816C70.5643 20.3887 70.8341 20.6182 71.1878 20.7714C71.5409 20.9247 71.9441 20.9317 72.3974 20.7912C72.8507 20.6514 73.3337 20.3485 73.847 19.881C74.3603 19.4143 74.8765 18.7209 75.3969 17.8016C75.3969 17.5749 75.3997 17.3285 75.4068 17.0616C75.4131 16.7954 75.3898 16.5518 75.3369 16.3315C75.2832 16.1112 75.1837 15.9283 75.0368 15.7814C74.8906 15.6352 74.6703 15.5618 74.3773 15.5618Z" fill="#282220"/>
<path d="M84.356 23.3212C84.5692 23.1743 84.8262 22.9844 85.1256 22.7514C85.4257 22.5184 85.7286 22.2684 86.0358 22.0015C86.3422 21.7353 86.6289 21.455 86.8958 21.1619C87.162 20.8689 87.3724 20.5858 87.5257 20.3118C87.6789 20.0385 87.7558 19.7822 87.7558 19.5421C87.7558 19.3021 87.6358 19.1022 87.3957 18.9419C86.9692 18.9419 86.5025 18.9589 85.9962 18.9921C85.4893 19.0253 84.983 19.0387 84.4767 19.0323C83.9697 19.026 83.4797 18.9822 83.0066 18.9024C82.5335 18.8226 82.1098 18.6757 81.737 18.4625C81.3635 18.2493 81.0669 17.9463 80.8473 17.5523C80.627 17.159 80.5176 16.6556 80.5176 16.0427C80.5176 15.3225 80.6539 14.6728 80.9278 14.0931C81.2011 13.5134 81.564 13.0001 82.0173 12.5531C82.4707 12.1069 82.9805 11.7136 83.5475 11.3732C84.1138 11.0336 84.6836 10.7434 85.2569 10.5033C85.6036 10.5965 85.9235 10.7631 86.2165 11.0032C86.5096 11.2433 86.7631 11.5102 86.9763 11.8032C86.8831 12.097 86.6995 12.3229 86.4263 12.4832C86.153 12.6435 85.8395 12.7833 85.4864 12.9033C85.1334 13.0234 84.7634 13.1505 84.3764 13.2832C83.9895 13.4167 83.64 13.5932 83.3265 13.8128C83.013 14.0331 82.7496 14.3198 82.5363 14.6728C82.3231 15.0259 82.2165 15.4898 82.2165 16.0625C82.2165 16.4889 82.3231 16.8024 82.5363 17.0023C82.7496 17.2021 83.0292 17.3391 83.3759 17.4125C83.7226 17.486 84.1159 17.5128 84.5558 17.4923C84.9957 17.4718 85.4455 17.4422 85.9059 17.4026C86.3662 17.3631 86.816 17.3398 87.2559 17.3327C87.6958 17.3264 88.0891 17.3793 88.4358 17.493C88.7825 17.6067 89.0586 17.7896 89.2655 18.0431C89.4717 18.2966 89.5755 18.6701 89.5755 19.163C89.5755 19.3762 89.5056 19.6495 89.3658 19.9827C89.226 20.316 89.0388 20.6726 88.8058 21.0525C88.5721 21.4324 88.2988 21.8094 87.986 22.1823C87.6725 22.5558 87.3463 22.8919 87.006 23.192C86.6656 23.4921 86.326 23.7385 85.9863 23.932C85.6467 24.1255 85.3297 24.2222 85.0366 24.2222C84.757 24.2222 84.5734 24.1219 84.4866 23.9221C84.399 23.7209 84.356 23.521 84.356 23.3212Z" fill="#282220"/>
<path d="M90.8542 12.9026C90.8542 12.5164 90.8273 12.1393 90.7744 11.7729C90.7207 11.4064 90.7073 11.0802 90.7341 10.7928C90.7609 10.5061 90.864 10.2766 91.0441 10.1029C91.2242 9.92993 91.5539 9.84308 92.0341 9.84308C92.1809 10.1502 92.3243 10.6163 92.4641 11.2426C92.6039 11.8696 92.7409 12.5891 92.8743 13.4025C93.0071 14.216 93.1342 15.0993 93.2542 16.0519C93.3742 17.0051 93.4844 17.9619 93.584 18.9215C93.6835 19.8811 93.7704 20.8244 93.8438 21.7508C93.9172 22.6772 93.9737 23.5203 94.014 24.2808C93.5741 24.5738 93.2203 24.5936 92.9541 24.3408C92.6872 24.088 92.4676 23.658 92.2939 23.0508C92.1202 22.4442 91.9867 21.7042 91.8942 20.8308C91.801 19.958 91.7107 19.0507 91.6245 18.1108C91.5377 17.171 91.4346 16.2446 91.3145 15.3309C91.1938 14.4193 91.0406 13.6094 90.8542 12.9026Z" fill="#282220"/>
<path d="M96.1727 9.22314C96.4255 9.32977 96.6395 9.50276 96.8125 9.74284C96.9855 9.98291 97.0624 10.1997 97.0426 10.3925C97.0229 10.5859 96.8725 10.7194 96.5929 10.7921C96.3132 10.8655 95.8458 10.7893 95.1934 10.5619C95.1934 10.2018 95.2633 9.889 95.4031 9.62209C95.5429 9.3566 95.7992 9.22314 96.1727 9.22314ZM95.8931 16.722C95.8931 16.6422 95.8959 16.5123 95.903 16.3322C95.9094 16.1521 95.9164 15.9622 95.9228 15.7624C95.9291 15.5625 95.9362 15.3691 95.9425 15.1827C95.9489 14.9963 95.9524 14.8628 95.9524 14.783C96.0993 14.5698 96.2892 14.3968 96.5223 14.2633C96.7553 14.1299 96.9925 14.0232 97.2319 13.9434C97.2721 14.6637 97.3851 15.4298 97.5715 16.2432C97.7579 17.0567 97.9578 17.8729 98.1717 18.6927C98.385 19.5125 98.5749 20.3224 98.7415 21.1224C98.9082 21.9224 98.9915 22.6688 98.9915 23.3622C98.9915 23.9624 98.6843 24.2617 98.0714 24.2617C97.6979 24.2617 97.3844 24.1085 97.1316 23.8021C96.8781 23.4956 96.6748 23.1059 96.5215 22.6321C96.3683 22.159 96.2448 21.6322 96.1515 21.0525C96.0583 20.4728 95.9948 19.903 95.9616 19.343C95.9284 18.7831 95.9079 18.2697 95.9016 17.803C95.8959 17.3356 95.8931 16.9755 95.8931 16.722Z" fill="#282220"/>
<path d="M103.612 23.3212C103.825 23.1743 104.082 22.9844 104.381 22.7514C104.682 22.5184 104.984 22.2684 105.292 22.0015C105.598 21.7353 105.885 21.455 106.152 21.1619C106.418 20.8689 106.628 20.5858 106.782 20.3118C106.935 20.0385 107.012 19.7822 107.012 19.5421C107.012 19.3021 106.892 19.1022 106.652 18.9419C106.225 18.9419 105.758 18.9589 105.252 18.9921C104.745 19.0253 104.239 19.0387 103.733 19.0323C103.226 19.026 102.736 18.9822 102.262 18.9024C101.789 18.8226 101.366 18.6757 100.993 18.4625C100.619 18.2493 100.323 17.9463 100.103 17.5523C99.8829 17.159 99.7734 16.6556 99.7734 16.0427C99.7734 15.3225 99.9097 14.6728 100.184 14.0931C100.457 13.5134 100.82 13.0001 101.273 12.5531C101.727 12.1069 102.236 11.7136 102.803 11.3732C103.37 11.0336 103.939 10.7434 104.513 10.5033C104.86 10.5965 105.179 10.7631 105.472 11.0032C105.765 11.2433 106.019 11.5102 106.232 11.8032C106.139 12.097 105.955 12.3229 105.682 12.4832C105.409 12.6435 105.095 12.7833 104.742 12.9033C104.389 13.0234 104.019 13.1505 103.632 13.2832C103.245 13.4167 102.896 13.5932 102.582 13.8128C102.269 14.0331 102.005 14.3198 101.792 14.6728C101.579 15.0259 101.472 15.4898 101.472 16.0625C101.472 16.4889 101.579 16.8024 101.792 17.0023C102.005 17.2021 102.285 17.3391 102.632 17.4125C102.978 17.486 103.372 17.5128 103.812 17.4923C104.252 17.4718 104.701 17.4422 105.162 17.4026C105.622 17.3631 106.072 17.3398 106.512 17.3327C106.952 17.3264 107.345 17.3793 107.692 17.493C108.038 17.6067 108.314 17.7896 108.521 18.0431C108.728 18.2966 108.831 18.6701 108.831 19.163C108.831 19.3762 108.761 19.6495 108.622 19.9827C108.482 20.316 108.295 20.6726 108.062 21.0525C107.828 21.4324 107.555 21.8094 107.242 22.1823C106.928 22.5558 106.602 22.8919 106.262 23.192C105.921 23.4921 105.582 23.7385 105.242 23.932C104.903 24.1255 104.586 24.2222 104.293 24.2222C104.013 24.2222 103.829 24.1219 103.742 23.9221C103.655 23.7209 103.612 23.521 103.612 23.3212Z" fill="#282220"/>
<path d="M109.191 14.1426C109.191 14.1023 109.198 14.0691 109.211 14.0423C109.211 14.0155 109.218 13.9823 109.231 13.942C109.284 13.8757 109.364 13.7888 109.471 13.6822C109.578 13.5756 109.644 13.5219 109.671 13.5219H113.69C113.69 13.375 113.67 13.142 113.63 12.8222C113.59 12.5023 113.553 12.1492 113.52 11.7623C113.487 11.3761 113.476 10.9722 113.49 10.5527C113.504 10.1326 113.56 9.75272 113.66 9.41308C113.761 9.07345 113.92 8.79312 114.14 8.57352C114.361 8.35393 114.67 8.24377 115.07 8.24377C115.07 9.59031 115.164 10.6699 115.35 11.4834C115.536 12.2968 115.786 12.9231 116.1 13.363C116.413 13.8029 116.77 14.0896 117.17 14.2231C117.569 14.3565 117.98 14.413 118.4 14.3932C118.82 14.3735 119.229 14.3099 119.63 14.2033C120.029 14.0967 120.386 14.0232 120.699 13.983C121.012 13.9427 121.262 13.9731 121.449 14.0727C121.636 14.1729 121.729 14.4095 121.729 14.7823C121.729 15.0619 121.665 15.2624 121.539 15.3825C121.412 15.5025 121.169 15.5957 120.809 15.6621C120.702 15.6755 120.526 15.6988 120.279 15.732C120.032 15.7652 119.756 15.7956 119.45 15.8217C119.143 15.8485 118.816 15.8789 118.47 15.9114C118.123 15.9445 117.796 15.9749 117.49 16.001C117.182 16.0279 116.903 16.0448 116.65 16.0512C116.396 16.0582 116.21 16.0611 116.09 16.0611C116.09 16.1281 116.083 16.2411 116.07 16.4007C116.057 16.561 116.05 16.6676 116.05 16.7206C116.05 17.3073 116.144 17.8772 116.33 18.43C116.517 18.9836 116.72 19.533 116.94 20.0795C117.16 20.626 117.363 21.1725 117.55 21.7191C117.737 22.2656 117.83 22.8326 117.83 23.4187C117.83 23.5253 117.82 23.6354 117.8 23.7484C117.78 23.8621 117.74 23.9616 117.68 24.0485C117.62 24.1353 117.533 24.2017 117.42 24.2483C117.307 24.2949 117.151 24.285 116.95 24.2187C116.443 24.0852 116.067 23.7985 115.82 23.3586C115.573 22.9187 115.39 22.3955 115.27 21.789C115.15 21.1824 115.07 20.5392 115.03 19.8592C114.99 19.1792 114.927 18.543 114.84 17.9492C114.753 17.356 114.617 16.8491 114.43 16.4296C114.243 16.0095 113.943 15.7532 113.53 15.66L109.671 14.7802C109.617 14.7802 109.537 14.7237 109.431 14.61C109.324 14.497 109.257 14.4137 109.231 14.36C109.218 14.3332 109.211 14.3 109.211 14.2598C109.198 14.2358 109.191 14.1955 109.191 14.1426Z" fill="#282220"/>
</g>
<defs>
<clipPath id="clip0_8768_57513">
<rect width="119.157" height="36" fill="white" transform="translate(2.57227)"/>
</clipPath>
</defs>
</svg>
