<svg width="120" height="28" viewBox="0 0 120 28" fill="none" xmlns="http://www.w3.org/2000/svg">
<path d="M27.9744 14C27.9744 21.732 21.7121 28 13.9872 28C6.26228 28 0 21.732 0 14C0 6.26801 6.26228 0 13.9872 0C21.7121 0 27.9744 6.26801 27.9744 14Z" fill="#FBECD5"/>
<path fill-rule="evenodd" clip-rule="evenodd" d="M74.4417 5L68.647 21.5C67.6479 20.1 66.2492 18 64.4509 15.2C65.5499 14.7 66.3491 14.1 66.9486 13.3C67.548 12.5 67.8478 11.5 67.8478 10.5C67.8478 8.7 67.2483 7.3 66.0494 6.5C64.8505 5.6 63.0522 5.2 60.6543 5.2H55.4591V23H59.2556V16.1H61.2538L65.5499 23H72.3436L73.6424 18.7H80.2364L81.5352 23H85.6315L79.0375 5H74.4417ZM63.0522 12.4C62.4527 12.8 61.5535 13 60.3546 13H59.1557V8.2H60.3546C61.5535 8.2 62.4527 8.4 63.0522 8.7C63.6516 9 63.9513 9.7 63.9513 10.5C63.8514 11.4 63.5517 12 63.0522 12.4ZM74.4417 15.5C75.7405 11.4 76.5398 8.8 76.7396 7.7C76.8395 8.1 76.9394 8.5 77.0393 9C77.1415 9.25562 77.3481 9.95557 77.6859 11.0999C78.0088 12.1938 78.4515 13.6939 79.0375 15.6H74.4417V15.5Z" fill="#FBECD5"/>
<path fill-rule="evenodd" clip-rule="evenodd" d="M117.502 7.40001C115.904 5.90001 113.606 5.10001 110.709 5.10001H105.114V23H110.209C113.406 23 115.804 22.2 117.502 20.6C119.201 19 120 16.8 120 13.8C119.9 11.1 119.101 8.90001 117.502 7.40001ZM110.409 19.9H108.81V8.20001H110.809C114.205 8.20001 115.904 10.1 115.904 14C115.904 17.9 114.105 19.9 110.409 19.9Z" fill="#FBECD5"/>
<path fill-rule="evenodd" clip-rule="evenodd" d="M50.0641 13.5V13.6C51.1631 13.9 51.9624 14.3 52.4619 15C52.9615 15.7 53.2612 16.6 53.2612 17.8C53.2612 19.4 52.6617 20.7 51.4628 21.6C50.2639 22.5 48.6654 23 46.6672 23H39.9734V5.10001H45.5682C48.1659 5.10001 49.9642 5.50001 51.1631 6.20001C52.2621 7.00001 52.8616 8.10001 52.8616 9.70001C52.8616 10.7 52.5618 11.7 52.0623 12.3C51.5628 12.9 50.8634 13.4 50.0641 13.5ZM45.7681 8.20001H43.7699V12.2H45.9679C47.0669 12.2 47.7662 12 48.2658 11.7C48.7653 11.4 48.9651 10.8 48.9651 10.1C48.9651 9.40001 48.6654 8.90001 48.1659 8.60001C47.6663 8.30001 46.8671 8.20001 45.7681 8.20001ZM46.2676 19.9C47.2667 19.9 48.066 19.7 48.5655 19.3C49.065 18.9 49.3648 18.2 49.3648 17.4C49.3648 15.9 48.2658 15.2 46.1677 15.2H43.7699V19.9H46.2676Z" fill="#FBECD5"/>
<path d="M98.6195 13.7C98.6195 14.4033 98.6689 15.4034 98.733 16.7002C98.7601 17.2473 98.7897 17.8473 98.8194 18.5H98.7194L90.9266 5.10001H86.131V23H89.5279V14.6C89.5279 13.9219 89.4819 12.922 89.4212 11.6003L89.4211 11.5987C89.3923 10.9715 89.3602 10.272 89.328 9.50001H89.4279L97.2208 23H102.016V5.10001H98.6195V13.7Z" fill="#FBECD5"/>
</svg>
