<svg viewBox="0 0 102 24" fill="none" xmlns="http://www.w3.org/2000/svg">
<path d="M23.7782 12C23.7782 18.6274 18.4553 24 11.8891 24C5.32293 24 0 18.6274 0 12C0 5.37258 5.32293 0 11.8891 0C18.4553 0 23.7782 5.37258 23.7782 12Z" fill="#282220"/>
<path fill-rule="evenodd" clip-rule="evenodd" d="M63.2755 4.28571L58.35 18.4286C57.5008 17.2286 56.3118 15.4286 54.7832 13.0286C55.7174 12.6 56.3968 12.0857 56.9063 11.4C57.4158 10.7143 57.6706 9.85714 57.6706 9C57.6706 7.45714 57.1611 6.25714 56.142 5.57143C55.1229 4.8 53.5943 4.45714 51.5562 4.45714H47.1402V19.7143H50.3673V13.8H52.0657L55.7174 19.7143H61.4921L62.5961 16.0286H68.2009L69.3049 19.7143H72.7867L67.1819 4.28571H63.2755ZM53.5943 10.6286C53.0848 10.9714 52.3205 11.1429 51.3014 11.1429H50.2824V7.02857H51.3014C52.3205 7.02857 53.0848 7.2 53.5943 7.45714C54.1039 7.71429 54.3586 8.31429 54.3586 9C54.2737 9.77143 54.0189 10.2857 53.5943 10.6286ZM63.2755 13.2857C64.3794 9.77143 65.0588 7.54286 65.2287 6.6C65.3136 6.94286 65.3985 7.28571 65.4834 7.71429C65.5703 7.93339 65.7459 8.53335 66.033 9.51416C66.3074 10.4518 66.6838 11.7376 67.1819 13.3714H63.2755V13.2857Z" fill="#282220"/>
<path fill-rule="evenodd" clip-rule="evenodd" d="M99.877 6.34286C98.5183 5.05715 96.5651 4.37143 94.1023 4.37143H89.3467V19.7143H93.6777C96.3952 19.7143 98.4333 19.0286 99.877 17.6571C101.321 16.2857 102 14.4 102 11.8286C101.915 9.51429 101.236 7.62858 99.877 6.34286ZM93.8476 17.0571H92.4888V7.02858H94.1872C97.0746 7.02858 98.5183 8.65715 98.5183 12C98.5183 15.3429 96.9897 17.0571 93.8476 17.0571Z" fill="#282220"/>
<path fill-rule="evenodd" clip-rule="evenodd" d="M42.5545 11.5714V11.6571C43.4887 11.9143 44.168 12.2571 44.5926 12.8571C45.0173 13.4571 45.272 14.2286 45.272 15.2571C45.272 16.6286 44.7625 17.7429 43.7434 18.5143C42.7243 19.2857 41.3656 19.7143 39.6672 19.7143H33.9774V4.37143H38.733C40.941 4.37143 42.4696 4.71429 43.4887 5.31429C44.4228 6.00001 44.9323 6.94286 44.9323 8.31429C44.9323 9.17143 44.6776 10.0286 44.253 10.5429C43.8283 11.0571 43.2339 11.4857 42.5545 11.5714ZM38.9029 7.02858H37.2044V10.4571H39.0727C40.0068 10.4571 40.6013 10.2857 41.0259 10.0286C41.4505 9.77143 41.6204 9.25715 41.6204 8.65715C41.6204 8.05715 41.3656 7.62858 40.941 7.37143C40.5164 7.11429 39.837 7.02858 38.9029 7.02858ZM39.3275 17.0571C40.1767 17.0571 40.8561 16.8857 41.2807 16.5429C41.7053 16.2 41.96 15.6 41.96 14.9143C41.96 13.6286 41.0259 13.0286 39.2425 13.0286H37.2044V17.0571H39.3275Z" fill="#282220"/>
<path d="M83.8266 11.7429C83.8266 12.3457 83.8686 13.2029 83.9231 14.3145C83.9461 14.7834 83.9713 15.2977 83.9965 15.8571H83.9115L77.2876 4.37143H73.2113V19.7143H76.0987V12.5143C76.0987 11.9331 76.0596 11.076 76.008 9.94312L76.0079 9.94171C75.9835 9.40417 75.9562 8.80456 75.9288 8.14286H76.0138L82.6377 19.7143H86.714V4.37143H83.8266V11.7429Z" fill="#282220"/>
</svg>
