<svg viewBox="0 0 120 36" fill="none" xmlns="http://www.w3.org/2000/svg">
<g clip-path="url(#clip0_8861_32497)">
<path d="M37.823 13.7626C37.3443 13.6256 36.8648 13.6842 36.4376 13.9328C36.391 13.9596 36.3465 13.9907 36.3028 14.021C36.3529 13.3552 36.3628 12.7232 36.3374 12.0785C36.2519 9.86631 35.7096 7.10474 34.445 5.99121C34.0397 5.63392 33.5744 5.46799 33.0978 5.50965C32.5322 5.55978 32.0534 5.84223 31.7131 6.32802C31.7046 6.34003 31.6968 6.35415 31.6884 6.36686C31.5514 5.97638 31.4137 5.61133 31.2817 5.26957C30.4739 3.18727 29.0708 0.746273 27.552 0.143261C27.0592 -0.0523303 26.5712 -0.0473875 26.1398 0.158089C25.6441 0.393927 25.3017 0.806998 25.1498 1.3507C25.0482 1.71787 25.0411 2.10764 25.0962 2.49388C23.7186 1.73129 22.1729 1.27232 21.4873 1.13039C18.1665 0.441236 14.4164 1.59007 13.9164 3.45065C13.747 4.0812 13.9327 4.72376 14.427 5.21379C14.6169 5.40232 14.8414 5.55837 15.0865 5.68194C14.708 5.94955 14.3549 6.256 14.0337 6.59846C14.0125 6.61541 13.992 6.63377 13.9729 6.65354C12.0474 8.63698 10.6613 11.705 9.84716 14.8408C8.3015 12.4048 6.53342 10.9537 4.58316 10.5244C2.87792 10.1495 1.52502 10.7045 0.995445 11.0907C0.636038 11.352 0.576019 11.6739 0.572489 11.842C0.561191 12.3525 0.982029 12.69 1.12113 12.8009C2.14851 13.6228 3.93566 15.3753 4.36074 17.8728C4.54503 18.956 4.56551 20.0872 4.5874 21.2847C4.64106 24.2038 4.70108 27.5118 7.4337 30.4634C9.04574 32.2053 11.2099 33.8477 16.0856 34.068L16.1032 34.0687C16.5785 34.0899 17.848 34.1408 19.3626 34.1408C21.5706 34.1408 24.3011 34.0341 25.8552 33.5766C30.4887 32.2152 32.7701 29.9931 32.9954 29.765C35.5317 27.4434 37.5194 24.143 38.3137 20.9317C39.4364 16.3921 39.2853 14.1806 37.823 13.7626ZM14.8012 7.57712C14.8308 7.55453 14.8584 7.52911 14.8845 7.50086C15.9578 6.32238 17.4872 5.64663 19.0802 5.64663C19.6429 5.64663 20.1951 5.73207 20.7233 5.89236L21.1893 6.05547C21.9985 6.37957 22.7321 6.88867 23.3239 7.55453C23.3288 7.55947 23.3337 7.56512 23.3387 7.57077C26.2394 10.6084 27.737 16.3257 27.9001 20.3527C27.9008 20.3604 27.9015 20.3689 27.9022 20.3767C27.9213 20.6174 27.9312 20.8589 27.9312 21.0948C27.9312 25.9754 23.9608 29.9458 19.0802 29.9458C14.2003 29.9458 10.2299 25.9754 10.2299 21.0969C10.2447 15.3464 12.5304 9.96799 14.8012 7.57712ZM37.1127 20.6351C36.3734 23.6233 34.5177 26.6998 32.148 28.8633C32.1389 28.8718 32.129 28.881 32.1205 28.8902C31.3883 29.6436 29.0638 31.3446 25.5064 32.3896C23.0224 33.1204 16.8545 32.8641 16.159 32.833L16.1407 32.8316C11.712 32.6318 9.77514 31.1716 8.34104 29.6231C5.9297 27.0176 5.87603 24.0915 5.82449 21.2621C5.8026 20.0716 5.78071 18.8402 5.58018 17.6652C5.10285 14.8592 3.19072 12.8997 2.01153 11.9303C2.4592 11.7276 3.28887 11.5066 4.31766 11.7332C6.12105 12.1294 7.85313 13.7386 9.32676 16.3858L9.45104 16.6082C9.15094 18.1779 8.99631 19.7165 8.99278 21.0948C8.99278 26.6575 13.5182 31.1829 19.0802 31.1829C24.6429 31.1829 29.1683 26.6575 29.1683 21.0948C29.1683 20.83 29.1577 20.5595 29.1358 20.2898C29.0391 17.9272 28.5512 15.3421 27.7624 13.0078C26.8763 10.3839 25.6582 8.21191 24.2411 6.72415C23.5293 5.92555 22.6488 5.31406 21.6786 4.91935L21.6801 4.91652L21.625 4.89746C21.4569 4.83038 21.286 4.77177 21.1131 4.71811L21.0961 4.71175C19.8745 4.28456 18.4842 4.28244 16.964 4.70469C16.3073 4.88757 15.616 4.65032 15.2976 4.3354C15.0307 4.07061 15.0914 3.84607 15.1112 3.77193C15.3407 2.91825 18.1495 1.70093 21.2359 2.34136C22.5825 2.62098 25.4365 3.70061 26.2542 5.04433L26.5762 5.5732L26.5974 5.55978C26.9151 6.07877 27.2265 6.6486 27.4722 7.28833C27.7871 8.10882 29.0115 11.2376 29.1683 12.3144C29.1683 12.3144 29.7642 10.4001 28.5702 6.97693C28.3005 6.20234 27.9693 5.5273 27.6304 4.93135L27.6325 4.92923L27.5683 4.82402C27.3345 4.41943 27.098 4.05225 26.877 3.71615C26.4208 3.02346 26.2012 2.18814 26.3418 1.68327C26.3968 1.48556 26.502 1.35564 26.6722 1.27515C26.7456 1.23984 26.8699 1.20312 27.0952 1.2928C28.0124 1.65715 29.2594 3.47678 30.1279 5.71795C30.4668 6.59281 30.8961 7.6322 31.2365 8.84811C31.2619 9.0324 31.2972 9.2167 31.3459 9.39887C31.8119 11.1514 31.8133 12.9386 31.7554 14.4525C31.6495 17.2522 31.1722 18.6107 30.9498 19.2737C30.9237 19.3514 31.0289 19.403 31.0741 19.3345C31.5796 18.5697 32.4178 16.9831 32.7779 14.6156C33.0286 12.9711 33.0547 11.0095 32.5413 9.08042C32.3394 8.32136 32.4157 7.48109 32.7263 7.03766C32.8958 6.79547 33.0815 6.7531 33.2065 6.7418C33.2552 6.73756 33.4056 6.72415 33.6273 6.91974C34.4026 7.60254 35.0092 9.74345 35.1017 12.1265C35.1631 13.7266 35.1087 15.1515 34.6441 17.3094C34.2049 18.9037 33.6231 20.3082 33.049 21.4641C31.9856 23.605 30.541 25.3872 30.4965 25.443C30.5501 25.4246 32.273 24.8025 33.9324 22.2704C34.8009 20.9444 35.4999 19.0647 36.009 16.9768C36.2477 15.9967 36.6502 15.2405 37.059 15.0025C37.196 14.9227 37.3266 14.9072 37.4827 14.9524C37.5222 14.9637 38.4345 15.2906 37.1127 20.6351Z" fill="#282220"/>
<path d="M37.1128 20.6351C36.3736 23.6234 34.5179 26.6999 32.1482 28.8634C32.1391 28.8718 32.1292 28.881 32.1207 28.8902C31.3885 29.6436 29.064 31.3446 25.5066 32.3897C23.0225 33.1205 16.8547 32.8642 16.1592 32.8331L16.1409 32.8317C11.7122 32.6318 9.77533 31.1716 8.34123 29.6231C5.92989 27.0176 5.87623 24.0915 5.82468 21.2622C5.80279 20.0717 5.7809 18.8402 5.58037 17.6653C5.10304 14.8592 3.19091 12.8998 2.01172 11.9303C2.45939 11.7276 3.28906 11.5066 4.31785 11.7333C6.12124 12.1294 7.85332 13.7386 9.32696 16.3858L9.45123 16.6082C9.15114 18.1779 8.9965 19.7165 8.99297 21.0948C8.99297 26.6575 13.5184 31.1829 19.0804 31.1829C24.6431 31.1829 29.1685 26.6575 29.1685 21.0948C29.1685 20.83 29.1579 20.5596 29.136 20.2899C29.0393 17.9272 28.5513 15.3422 27.7626 13.0078C26.8765 10.3839 25.6584 8.21195 24.2413 6.72419C23.5295 5.92558 22.649 5.3141 21.6788 4.91939L21.6802 4.91656L21.6252 4.8975C21.4571 4.83042 21.2862 4.77181 21.1132 4.71815L21.0963 4.71179C19.8747 4.2846 18.4844 4.28248 16.9642 4.70473C16.3075 4.88761 15.6162 4.65036 15.2978 4.33544C15.0309 4.07065 15.0916 3.84611 15.1114 3.77197C15.3408 2.91829 18.1497 1.70097 21.2361 2.3414C22.5826 2.62102 25.4367 3.70065 26.2544 5.04437L26.5764 5.57324L26.5976 5.55982C26.9153 6.07881 27.2267 6.64864 27.4724 7.28837C27.7873 8.10886 29.0117 11.2376 29.1685 12.3144C29.1685 12.3144 29.7644 10.4002 28.5704 6.97697C28.3007 6.20238 27.9695 5.52734 27.6306 4.93139L27.6327 4.92927L27.5684 4.82406C27.3347 4.41947 27.0982 4.05229 26.8772 3.71619C26.421 3.0235 26.2014 2.18818 26.3419 1.68331C26.397 1.4856 26.5022 1.35568 26.6724 1.27518C26.7458 1.23988 26.8701 1.20316 27.0954 1.29284C28.0126 1.65719 29.2596 3.47682 30.1281 5.71799C30.467 6.59285 30.8963 7.63224 31.2367 8.84815C31.2621 9.03244 31.2974 9.21674 31.3461 9.39891C31.8121 11.1515 31.8135 12.9386 31.7556 14.4525C31.6497 17.2522 31.1724 18.6107 30.95 19.2738C30.9238 19.3514 31.0291 19.403 31.0742 19.3345C31.5798 18.5698 32.418 16.9832 32.7781 14.6156C33.0287 12.9711 33.0549 11.0095 32.5415 9.08046C32.3396 8.3214 32.4158 7.48113 32.7265 7.0377C32.896 6.7955 33.0817 6.75314 33.2067 6.74184C33.2554 6.7376 33.4058 6.72419 33.6275 6.91978C34.4028 7.60258 35.0094 9.74349 35.1019 12.1266C35.1633 13.7266 35.1089 15.1515 34.6443 17.3094C34.2051 18.9038 33.6233 20.3082 33.0492 21.4641C31.9858 23.605 30.5411 25.3872 30.4967 25.443C30.5503 25.4246 32.2732 24.8026 33.9326 22.2705C34.8011 20.9444 35.5001 19.0648 36.0092 16.9768C36.2479 15.9967 36.6503 15.2405 37.0592 15.0026C37.1962 14.9228 37.3268 14.9072 37.4828 14.9524C37.5224 14.9637 38.4347 15.2906 37.1128 20.6351Z" fill="#F9AA29"/>
<path d="M27.9318 21.0948C27.9318 25.9754 23.9614 29.9458 19.0808 29.9458C14.2009 29.9458 10.2305 25.9754 10.2305 21.0969C10.2453 15.3464 12.531 9.96802 14.8018 7.57716C14.8314 7.55456 14.859 7.52914 14.8851 7.5009C15.9584 6.32241 17.4878 5.64667 19.0808 5.64667C19.6435 5.64667 20.1957 5.73211 20.7239 5.89239L21.1899 6.0555C21.9991 6.3796 22.7327 6.8887 23.3245 7.55456C23.3294 7.5595 23.3343 7.56515 23.3393 7.5708C26.24 10.6085 27.7376 16.3258 27.9007 20.3527C27.9014 20.3605 27.9021 20.3689 27.9028 20.3767C27.9219 20.6175 27.9318 20.859 27.9318 21.0948Z" fill="#FBECD5"/>
<path d="M44.2012 18.6616C44.2012 17.9414 44.288 17.2219 44.461 16.5016C44.634 15.7814 44.9108 15.1353 45.2907 14.562C45.6706 13.9886 46.1634 13.5219 46.7707 13.1625C47.3772 12.8024 48.1137 12.6223 48.9801 12.6223C49.4729 12.6223 49.9065 12.712 50.28 12.892C50.6528 13.0721 50.9664 13.3086 51.2198 13.6017C51.4726 13.8954 51.6626 14.2386 51.7897 14.6312C51.9161 15.0245 51.9796 15.4347 51.9796 15.8612C51.9796 16.5412 51.8229 17.2007 51.5093 17.8411C51.1958 18.4809 50.7757 19.0443 50.2497 19.5308C49.7229 20.0173 49.1199 20.3838 48.4399 20.6309C47.7599 20.8781 47.0665 20.9346 46.3604 20.8011C46.3739 21.1881 46.5038 21.498 46.7502 21.7311C46.9966 21.9648 47.2932 22.1413 47.6399 22.2606C47.9866 22.3807 48.346 22.4576 48.7195 22.4908C49.0924 22.524 49.4256 22.541 49.7194 22.541C50.0258 22.541 50.3125 22.5141 50.5794 22.4612C50.8456 22.4082 51.1125 22.3482 51.3794 22.2811C51.6456 22.2147 51.9161 22.1547 52.1893 22.1011C52.4626 22.0481 52.7521 22.0213 53.0592 22.0213C53.1793 22.0213 53.2993 22.0283 53.4194 22.041C53.5394 22.0545 53.6524 22.0848 53.759 22.1307C53.8656 22.1773 53.9518 22.2507 54.0188 22.351C54.0852 22.4513 54.1191 22.5741 54.1191 22.721C54.1191 22.9745 54.0259 23.1842 53.8395 23.3509C53.6524 23.5175 53.4158 23.6608 53.1299 23.7809C52.8432 23.9009 52.5268 23.9906 52.1801 24.0506C51.8334 24.1106 51.4966 24.1572 51.1704 24.1904C50.8435 24.2236 50.5434 24.2434 50.2708 24.2504C49.9976 24.2568 49.7942 24.2603 49.6608 24.2603C48.8078 24.2603 48.041 24.124 47.361 23.8501C46.681 23.5768 46.1077 23.1969 45.6409 22.7104C45.1742 22.2239 44.8176 21.6371 44.5712 20.9508C44.324 20.2652 44.2012 19.5019 44.2012 18.6616ZM46.3209 17.3617C46.3209 17.8284 46.3837 18.1688 46.5108 18.3813C46.6372 18.5945 46.9472 18.7012 47.4408 18.7012C47.7875 18.7012 48.1271 18.6383 48.4604 18.5112C48.7937 18.3848 49.0966 18.2083 49.3706 17.9816C49.6438 17.755 49.8606 17.4888 50.0202 17.1816C50.1805 16.8752 50.2602 16.5419 50.2602 16.1818C50.2602 15.982 50.2433 15.7751 50.2101 15.5618C50.1769 15.3486 50.107 15.1516 50.0004 14.9722C49.8938 14.7922 49.7568 14.646 49.5902 14.5323C49.4235 14.4193 49.2067 14.3622 48.9405 14.3622C48.5409 14.3622 48.1772 14.4518 47.851 14.6319C47.5241 14.8119 47.248 15.045 47.0214 15.3316C46.7947 15.6183 46.6217 15.9382 46.5017 16.2912C46.3809 16.6457 46.3209 17.0023 46.3209 17.3617Z" fill="#FBECD5"/>
<path d="M60.5188 34.8596C61.2652 34.8596 61.9318 34.7226 62.5185 34.4494C63.1053 34.1761 63.6017 33.8026 64.0084 33.3295C64.4151 32.8564 64.7286 32.3162 64.9482 31.7097C65.1685 31.1031 65.278 30.4733 65.278 29.8202C65.278 29.4869 65.261 29.047 65.2279 28.5005C65.1947 27.9539 65.1445 27.3608 65.0782 26.7204C65.0111 26.0806 64.9151 25.4268 64.788 24.7609C64.6609 24.0944 64.5048 23.4645 64.3177 22.8714C64.1306 22.2783 63.9011 21.7586 63.6278 21.3116C63.3546 20.8654 63.0382 20.5483 62.6781 20.3619C62.3314 20.6288 61.9911 20.8717 61.6585 21.092C61.3252 21.3123 60.9785 21.4952 60.6184 21.6421C60.2583 21.7889 59.8848 21.9054 59.4985 21.9923C59.1116 22.0791 58.6985 22.1222 58.2586 22.1222C57.6853 22.1222 57.1952 22.0693 56.7885 21.9619C56.3818 21.8553 56.0414 21.6753 55.7689 21.4218C55.4956 21.169 55.2923 20.835 55.1588 20.4219C55.0254 20.0088 54.959 19.4892 54.959 18.8621C54.959 18.4222 55.0656 17.9922 55.2789 17.5721C55.4921 17.152 55.7752 16.7594 56.129 16.3922C56.4821 16.0257 56.8817 15.6889 57.3287 15.3825C57.7749 15.076 58.2353 14.8091 58.7084 14.5824C59.1815 14.3558 59.6482 14.1828 60.1079 14.0627C60.5676 13.9427 60.9778 13.8827 61.3379 13.8827C61.6846 13.8827 61.9706 13.8926 62.198 13.9123C62.4246 13.9321 62.6181 13.9858 62.7777 14.0726C62.938 14.1595 63.0742 14.2929 63.1879 14.4723C63.3009 14.6523 63.411 14.8959 63.5177 15.2024C63.8241 16.2425 64.1779 17.3624 64.5775 18.562C64.9772 19.7617 65.3571 20.9953 65.7172 22.2613C66.0773 23.5281 66.3802 24.804 66.6274 26.0905C66.8738 27.377 66.9973 28.6205 66.9973 29.8202C66.9973 30.8864 66.8477 31.7902 66.5476 32.5295C66.2475 33.2688 65.8542 33.876 65.3677 34.3491C64.8812 34.8222 64.3276 35.1858 63.7076 35.4386C63.0877 35.6914 62.4642 35.8552 61.8379 35.9287C61.2108 36.0021 60.6043 36.0183 60.0182 35.9788C59.4314 35.9385 58.9252 35.8616 58.4987 35.7486C58.0722 35.6349 57.7488 35.505 57.5285 35.3588C57.3082 35.212 57.2552 35.0891 57.3682 34.9888C57.4812 34.8886 57.7848 34.8187 58.2784 34.7791C58.7719 34.7396 59.519 34.7657 60.5188 34.8596ZM60.7992 15.5618C59.8127 15.775 59.0163 16.0716 58.4097 16.4515C57.8032 16.8314 57.3499 17.2381 57.0498 17.6716C56.7497 18.1052 56.5866 18.538 56.5597 18.9716C56.5329 19.4051 56.6127 19.7751 56.7998 20.0816C56.9862 20.3887 57.2559 20.6182 57.6097 20.7714C57.9628 20.9247 58.3659 20.9317 58.8193 20.7912C59.2726 20.6514 59.7555 20.3485 60.2689 19.881C60.7822 19.4143 61.2984 18.7209 61.8188 17.8016C61.8188 17.5749 61.8216 17.3285 61.8287 17.0616C61.835 16.7954 61.8117 16.5518 61.7588 16.3315C61.7051 16.1112 61.6055 15.9283 61.4587 15.7814C61.3118 15.6352 61.0922 15.5618 60.7992 15.5618Z" fill="#FBECD5"/>
<path d="M72.097 34.8596C72.8433 34.8596 73.5099 34.7226 74.0967 34.4494C74.6834 34.1761 75.1798 33.8026 75.5865 33.3295C75.9933 32.8564 76.3068 32.3162 76.5264 31.7097C76.7467 31.1031 76.8561 30.4733 76.8561 29.8202C76.8561 29.4869 76.8392 29.047 76.806 28.5005C76.7728 27.9539 76.7227 27.3608 76.6563 26.7204C76.5892 26.0806 76.4932 25.4268 76.3661 24.7609C76.239 24.0944 76.0829 23.4645 75.8958 22.8714C75.7087 22.2783 75.4792 21.7586 75.2059 21.3116C74.9327 20.8654 74.6164 20.5483 74.2562 20.3619C73.9095 20.6288 73.5692 20.8717 73.2366 21.092C72.9033 21.3123 72.5566 21.4952 72.1965 21.6421C71.8364 21.7889 71.4629 21.9054 71.0766 21.9923C70.6897 22.0791 70.2766 22.1222 69.8367 22.1222C69.2634 22.1222 68.7733 22.0693 68.3666 21.9619C67.9599 21.8553 67.6196 21.6753 67.347 21.4218C67.0737 21.169 66.8704 20.835 66.7369 20.4219C66.6035 20.0088 66.5371 19.4892 66.5371 18.8621C66.5371 18.4222 66.6437 17.9922 66.857 17.5721C67.0702 17.152 67.3534 16.7594 67.7071 16.3922C68.0602 16.0257 68.4598 15.6889 68.9068 15.3825C69.3531 15.076 69.8134 14.8091 70.2865 14.5824C70.7596 14.3558 71.2263 14.1828 71.686 14.0627C72.1457 13.9427 72.5559 13.8827 72.9161 13.8827C73.2628 13.8827 73.5487 13.8926 73.7761 13.9123C74.0027 13.9321 74.1962 13.9858 74.3558 14.0726C74.5161 14.1595 74.6524 14.2929 74.766 14.4723C74.879 14.6523 74.9892 14.8959 75.0958 15.2024C75.4022 16.2425 75.756 17.3624 76.1557 18.562C76.5553 19.7617 76.9352 20.9953 77.2953 22.2613C77.6554 23.5281 77.9583 24.804 78.2055 26.0905C78.4519 27.377 78.5755 28.6205 78.5755 29.8202C78.5755 30.8864 78.4258 31.7902 78.1257 32.5295C77.8256 33.2688 77.4323 33.876 76.9458 34.3491C76.4593 34.8222 75.9057 35.1858 75.2857 35.4386C74.6658 35.6914 74.0423 35.8552 73.416 35.9287C72.789 36.0021 72.1824 36.0183 71.5963 35.9788C71.0096 35.9385 70.5033 35.8616 70.0768 35.7486C69.6503 35.6349 69.3269 35.505 69.1066 35.3588C68.8863 35.212 68.8334 35.0891 68.9463 34.9888C69.0593 34.8886 69.3629 34.8187 69.8565 34.7791C70.3508 34.7396 71.0971 34.7657 72.097 34.8596ZM72.3773 15.5618C71.3909 15.775 70.5944 16.0716 69.9878 16.4515C69.3813 16.8314 68.928 17.2381 68.6279 17.6716C68.3278 18.1052 68.1647 18.538 68.1378 18.9716C68.111 19.4051 68.1908 19.7751 68.3779 20.0816C68.5643 20.3887 68.8341 20.6182 69.1878 20.7714C69.5409 20.9247 69.9441 20.9317 70.3974 20.7912C70.8507 20.6514 71.3337 20.3485 71.847 19.881C72.3603 19.4143 72.8765 18.7209 73.3969 17.8016C73.3969 17.5749 73.3997 17.3285 73.4068 17.0616C73.4131 16.7954 73.3898 16.5518 73.3369 16.3315C73.2832 16.1112 73.1837 15.9283 73.0368 15.7814C72.8906 15.6352 72.6703 15.5618 72.3773 15.5618Z" fill="#FBECD5"/>
<path d="M82.356 23.3212C82.5692 23.1743 82.8262 22.9844 83.1256 22.7514C83.4257 22.5184 83.7286 22.2684 84.0358 22.0015C84.3422 21.7353 84.6289 21.455 84.8958 21.1619C85.162 20.8689 85.3724 20.5858 85.5257 20.3118C85.6789 20.0385 85.7558 19.7822 85.7558 19.5421C85.7558 19.3021 85.6358 19.1022 85.3957 18.9419C84.9692 18.9419 84.5025 18.9589 83.9962 18.9921C83.4893 19.0253 82.983 19.0387 82.4767 19.0323C81.9697 19.026 81.4797 18.9822 81.0066 18.9024C80.5335 18.8226 80.1098 18.6757 79.737 18.4625C79.3635 18.2493 79.0669 17.9463 78.8473 17.5523C78.627 17.159 78.5176 16.6556 78.5176 16.0427C78.5176 15.3225 78.6539 14.6728 78.9278 14.0931C79.2011 13.5134 79.564 13.0001 80.0173 12.5531C80.4707 12.1069 80.9805 11.7136 81.5475 11.3732C82.1138 11.0336 82.6836 10.7434 83.2569 10.5033C83.6036 10.5965 83.9235 10.7631 84.2165 11.0032C84.5096 11.2433 84.7631 11.5102 84.9763 11.8032C84.8831 12.097 84.6995 12.3229 84.4263 12.4832C84.153 12.6435 83.8395 12.7833 83.4864 12.9033C83.1334 13.0234 82.7634 13.1505 82.3764 13.2832C81.9895 13.4167 81.64 13.5932 81.3265 13.8128C81.013 14.0331 80.7496 14.3198 80.5363 14.6728C80.3231 15.0259 80.2165 15.4898 80.2165 16.0625C80.2165 16.4889 80.3231 16.8024 80.5363 17.0023C80.7496 17.2021 81.0292 17.3391 81.3759 17.4125C81.7226 17.486 82.1159 17.5128 82.5558 17.4923C82.9957 17.4718 83.4455 17.4422 83.9059 17.4026C84.3662 17.3631 84.816 17.3398 85.2559 17.3327C85.6958 17.3264 86.0891 17.3793 86.4358 17.493C86.7825 17.6067 87.0586 17.7896 87.2655 18.0431C87.4717 18.2966 87.5755 18.6701 87.5755 19.163C87.5755 19.3762 87.5056 19.6495 87.3658 19.9827C87.226 20.316 87.0388 20.6726 86.8058 21.0525C86.5721 21.4324 86.2988 21.8094 85.986 22.1823C85.6725 22.5558 85.3463 22.8919 85.006 23.192C84.6656 23.4921 84.326 23.7385 83.9863 23.932C83.6467 24.1255 83.3297 24.2222 83.0366 24.2222C82.757 24.2222 82.5734 24.1219 82.4866 23.9221C82.399 23.7209 82.356 23.521 82.356 23.3212Z" fill="#FBECD5"/>
<path d="M88.8542 12.9026C88.8542 12.5164 88.8273 12.1393 88.7744 11.7729C88.7207 11.4064 88.7073 11.0802 88.7341 10.7928C88.7609 10.5061 88.864 10.2766 89.0441 10.1029C89.2242 9.92993 89.5539 9.84308 90.0341 9.84308C90.1809 10.1502 90.3243 10.6163 90.4641 11.2426C90.6039 11.8696 90.7409 12.5891 90.8743 13.4025C91.0071 14.216 91.1342 15.0993 91.2542 16.0519C91.3742 17.0051 91.4844 17.9619 91.584 18.9215C91.6835 19.8811 91.7704 20.8244 91.8438 21.7508C91.9172 22.6772 91.9737 23.5203 92.014 24.2808C91.5741 24.5738 91.2203 24.5936 90.9541 24.3408C90.6872 24.088 90.4676 23.658 90.2939 23.0508C90.1202 22.4442 89.9867 21.7042 89.8942 20.8308C89.801 19.958 89.7107 19.0507 89.6245 18.1108C89.5377 17.171 89.4346 16.2446 89.3145 15.3309C89.1938 14.4193 89.0406 13.6094 88.8542 12.9026Z" fill="#FBECD5"/>
<path d="M94.1727 9.22314C94.4255 9.32977 94.6395 9.50276 94.8125 9.74284C94.9855 9.98291 95.0624 10.1997 95.0426 10.3925C95.0229 10.5859 94.8725 10.7194 94.5929 10.7921C94.3132 10.8655 93.8458 10.7893 93.1934 10.5619C93.1934 10.2018 93.2633 9.889 93.4031 9.62209C93.5429 9.3566 93.7992 9.22314 94.1727 9.22314ZM93.8931 16.722C93.8931 16.6422 93.8959 16.5123 93.903 16.3322C93.9094 16.1521 93.9164 15.9622 93.9228 15.7624C93.9291 15.5625 93.9362 15.3691 93.9425 15.1827C93.9489 14.9963 93.9524 14.8628 93.9524 14.783C94.0993 14.5698 94.2892 14.3968 94.5223 14.2633C94.7553 14.1299 94.9925 14.0232 95.2319 13.9434C95.2721 14.6637 95.3851 15.4298 95.5715 16.2432C95.7579 17.0567 95.9578 17.8729 96.1717 18.6927C96.385 19.5125 96.5749 20.3224 96.7415 21.1224C96.9082 21.9224 96.9915 22.6688 96.9915 23.3622C96.9915 23.9624 96.6843 24.2617 96.0714 24.2617C95.6979 24.2617 95.3844 24.1085 95.1316 23.8021C94.8781 23.4956 94.6748 23.1059 94.5215 22.6321C94.3683 22.159 94.2448 21.6322 94.1515 21.0525C94.0583 20.4728 93.9948 19.903 93.9616 19.343C93.9284 18.7831 93.9079 18.2697 93.9016 17.803C93.8959 17.3356 93.8931 16.9755 93.8931 16.722Z" fill="#FBECD5"/>
<path d="M101.612 23.3212C101.825 23.1743 102.082 22.9844 102.381 22.7514C102.682 22.5184 102.984 22.2684 103.292 22.0015C103.598 21.7353 103.885 21.455 104.152 21.1619C104.418 20.8689 104.628 20.5858 104.782 20.3118C104.935 20.0385 105.012 19.7822 105.012 19.5421C105.012 19.3021 104.892 19.1022 104.652 18.9419C104.225 18.9419 103.758 18.9589 103.252 18.9921C102.745 19.0253 102.239 19.0387 101.733 19.0323C101.226 19.026 100.736 18.9822 100.262 18.9024C99.7894 18.8226 99.3657 18.6757 98.9929 18.4625C98.6194 18.2493 98.3228 17.9463 98.1032 17.5523C97.8829 17.159 97.7734 16.6556 97.7734 16.0427C97.7734 15.3225 97.9097 14.6728 98.1837 14.0931C98.4569 13.5134 98.8199 13.0001 99.2732 12.5531C99.7265 12.1069 100.236 11.7136 100.803 11.3732C101.37 11.0336 101.939 10.7434 102.513 10.5033C102.86 10.5965 103.179 10.7631 103.472 11.0032C103.765 11.2433 104.019 11.5102 104.232 11.8032C104.139 12.097 103.955 12.3229 103.682 12.4832C103.409 12.6435 103.095 12.7833 102.742 12.9033C102.389 13.0234 102.019 13.1505 101.632 13.2832C101.245 13.4167 100.896 13.5932 100.582 13.8128C100.269 14.0331 100.005 14.3198 99.7922 14.6728C99.579 15.0259 99.4723 15.4898 99.4723 16.0625C99.4723 16.4889 99.579 16.8024 99.7922 17.0023C100.005 17.2021 100.285 17.3391 100.632 17.4125C100.978 17.486 101.372 17.5128 101.812 17.4923C102.252 17.4718 102.701 17.4422 103.162 17.4026C103.622 17.3631 104.072 17.3398 104.512 17.3327C104.952 17.3264 105.345 17.3793 105.692 17.493C106.038 17.6067 106.314 17.7896 106.521 18.0431C106.728 18.2966 106.831 18.6701 106.831 19.163C106.831 19.3762 106.761 19.6495 106.622 19.9827C106.482 20.316 106.295 20.6726 106.062 21.0525C105.828 21.4324 105.555 21.8094 105.242 22.1823C104.928 22.5558 104.602 22.8919 104.262 23.192C103.921 23.4921 103.582 23.7385 103.242 23.932C102.903 24.1255 102.586 24.2222 102.293 24.2222C102.013 24.2222 101.829 24.1219 101.742 23.9221C101.655 23.7209 101.612 23.521 101.612 23.3212Z" fill="#FBECD5"/>
<path d="M107.191 14.1426C107.191 14.1023 107.198 14.0691 107.211 14.0423C107.211 14.0155 107.218 13.9823 107.231 13.942C107.284 13.8757 107.364 13.7888 107.471 13.6822C107.578 13.5756 107.644 13.5219 107.671 13.5219H111.69C111.69 13.375 111.67 13.142 111.63 12.8222C111.59 12.5023 111.553 12.1492 111.52 11.7623C111.487 11.3761 111.476 10.9722 111.49 10.5527C111.504 10.1326 111.56 9.75272 111.66 9.41308C111.761 9.07345 111.92 8.79312 112.14 8.57352C112.361 8.35393 112.67 8.24377 113.07 8.24377C113.07 9.59031 113.164 10.6699 113.35 11.4834C113.536 12.2968 113.786 12.9231 114.1 13.363C114.413 13.8029 114.77 14.0896 115.17 14.2231C115.569 14.3565 115.98 14.413 116.4 14.3932C116.82 14.3735 117.229 14.3099 117.63 14.2033C118.029 14.0967 118.386 14.0232 118.699 13.983C119.012 13.9427 119.262 13.9731 119.449 14.0727C119.636 14.1729 119.729 14.4095 119.729 14.7823C119.729 15.0619 119.665 15.2624 119.539 15.3825C119.412 15.5025 119.169 15.5957 118.809 15.6621C118.702 15.6755 118.526 15.6988 118.279 15.732C118.032 15.7652 117.756 15.7956 117.45 15.8217C117.143 15.8485 116.816 15.8789 116.47 15.9114C116.123 15.9445 115.796 15.9749 115.49 16.001C115.182 16.0279 114.903 16.0448 114.65 16.0512C114.396 16.0582 114.21 16.0611 114.09 16.0611C114.09 16.1281 114.083 16.2411 114.07 16.4007C114.057 16.561 114.05 16.6676 114.05 16.7206C114.05 17.3073 114.144 17.8772 114.33 18.43C114.517 18.9836 114.72 19.533 114.94 20.0795C115.16 20.626 115.363 21.1725 115.55 21.7191C115.737 22.2656 115.83 22.8326 115.83 23.4187C115.83 23.5253 115.82 23.6354 115.8 23.7484C115.78 23.8621 115.74 23.9616 115.68 24.0485C115.62 24.1353 115.533 24.2017 115.42 24.2483C115.307 24.2949 115.151 24.285 114.95 24.2187C114.443 24.0852 114.067 23.7985 113.82 23.3586C113.573 22.9187 113.39 22.3955 113.27 21.789C113.15 21.1824 113.07 20.5392 113.03 19.8592C112.99 19.1792 112.927 18.543 112.84 17.9492C112.753 17.356 112.617 16.8491 112.43 16.4296C112.243 16.0095 111.943 15.7532 111.53 15.66L107.671 14.7802C107.617 14.7802 107.537 14.7237 107.431 14.61C107.324 14.497 107.257 14.4137 107.231 14.36C107.218 14.3332 107.211 14.3 107.211 14.2598C107.198 14.2358 107.191 14.1955 107.191 14.1426Z" fill="#FBECD5"/>
</g>
<defs>
<clipPath id="clip0_8861_32497">
<rect width="119.157" height="36" fill="white" transform="translate(0.572266)"/>
</clipPath>
</defs>
</svg>
