<svg viewBox="0 0 15 20" fill="none" xmlns="http://www.w3.org/2000/svg">
<path d="M7.99609 4.5C8.65913 4.5 9.29502 4.76339 9.76386 5.23223C10.2327 5.70107 10.4961 6.33696 10.4961 7C10.4961 7.3283 10.4314 7.65339 10.3058 7.95671C10.1802 8.26002 9.99601 8.53562 9.76386 8.76777C9.53171 8.99991 9.25612 9.18406 8.9528 9.3097C8.64949 9.43534 8.3244 9.5 7.99609 9.5C7.33305 9.5 6.69717 9.23661 6.22833 8.76777C5.75949 8.29893 5.49609 7.66304 5.49609 7C5.49609 6.33696 5.75949 5.70107 6.22833 5.23223C6.69717 4.76339 7.33305 4.5 7.99609 4.5ZM7.99609 0C9.85261 0 11.6331 0.737498 12.9458 2.05025C14.2586 3.36301 14.9961 5.14348 14.9961 7C14.9961 12.25 7.99609 20 7.99609 20C7.99609 20 0.996094 12.25 0.996094 7C0.996094 5.14348 1.73359 3.36301 3.04635 2.05025C4.3591 0.737498 6.13958 0 7.99609 0ZM7.99609 2C6.67001 2 5.39824 2.52678 4.46056 3.46447C3.52288 4.40215 2.99609 5.67392 2.99609 7C2.99609 8 2.99609 10 7.99609 16.71C12.9961 10 12.9961 8 12.9961 7C12.9961 5.67392 12.4693 4.40215 11.5316 3.46447C10.5939 2.52678 9.32218 2 7.99609 2Z" fill="#282220"/>
</svg>
