<svg viewBox="0 0 33 25" fill="none" xmlns="http://www.w3.org/2000/svg">
<path d="M25.7688 25C29.7861 25 33 21.7427 33 17.671C33 13.6808 29.7861 10.342 25.6884 10.8306C25.6884 8.22476 29.063 4.3974 32.759 4.3974C32.759 3.4202 32.759 1.38437 32.759 3.79361e-06C25.2867 3.13975e-06 17.6538 6.75896 18.3769 17.9153C18.6983 21.9055 21.9121 25 25.7688 25ZM0.0578009 17.9153C0.29884 21.9055 3.51271 25 7.44971 25C11.3867 25 14.6809 21.7427 14.6809 17.671C14.6809 13.6808 11.467 10.342 7.28901 10.8306C7.28901 8.22476 10.7439 4.3974 14.4399 4.3974C14.4399 3.4202 14.4399 1.38437 14.4399 2.1906e-06C6.96763 1.53674e-06 -0.745669 6.75896 0.0578009 17.9153Z" fill="#FBECD5"/>
</svg>
