<svg viewBox="0 0 18 18" fill="none" xmlns="http://www.w3.org/2000/svg">
<path fill-rule="evenodd" clip-rule="evenodd" d="M15.2518 9.00002C15.2518 9.28335 15.2268 9.55002 15.1935 9.81669L16.9518 11.1917C17.1102 11.3167 17.1518 11.5417 17.0518 11.725L15.3852 14.6084C15.3102 14.7417 15.1685 14.8167 15.0268 14.8167C14.9768 14.8167 14.9268 14.8084 14.8768 14.7917L12.8018 13.9584C12.3685 14.2834 11.9018 14.5667 11.3935 14.775L11.0768 16.9834C11.0518 17.1834 10.8768 17.3334 10.6685 17.3334H7.33515C7.12682 17.3334 6.95182 17.1834 6.92682 16.9834L6.61015 14.775C6.10182 14.5667 5.63515 14.2917 5.20182 13.9584L3.12682 14.7917C3.08515 14.8084 3.03515 14.8167 2.98515 14.8167C2.83515 14.8167 2.69349 14.7417 2.61849 14.6084L0.951819 11.725C0.851819 11.5417 0.893486 11.3167 1.05182 11.1917L2.81015 9.81669C2.77682 9.55002 2.75182 9.27502 2.75182 9.00002C2.75182 8.72502 2.77682 8.45002 2.81015 8.18335L1.05182 6.80835C0.893486 6.68335 0.843486 6.45835 0.951819 6.27502L2.61849 3.39169C2.69349 3.25835 2.83515 3.18335 2.97682 3.18335C3.02682 3.18335 3.07682 3.19169 3.12682 3.20835L5.20182 4.04169C5.63515 3.71669 6.10182 3.43335 6.61015 3.22502L6.92682 1.01669C6.95182 0.816687 7.12682 0.666687 7.33515 0.666687H10.6685C10.8768 0.666687 11.0518 0.816687 11.0768 1.01669L11.3935 3.22502C11.9018 3.43335 12.3685 3.70835 12.8018 4.04169L14.8768 3.20835C14.9185 3.19169 14.9685 3.18335 15.0185 3.18335C15.1685 3.18335 15.3102 3.25835 15.3852 3.39169L17.0518 6.27502C17.1518 6.45835 17.1102 6.68335 16.9518 6.80835L15.1935 8.18335C15.2268 8.45002 15.2518 8.71669 15.2518 9.00002ZM13.5852 9.00002C13.5852 8.82502 13.5768 8.65002 13.5435 8.39169L13.4268 7.45002L14.1685 6.86669L15.0602 6.15835L14.4768 5.15002L13.4185 5.57502L12.5352 5.93335L11.7768 5.35002C11.4435 5.10002 11.1102 4.90835 10.7518 4.75835L9.86849 4.40002L9.57682 2.33335H8.41849L8.25182 3.45835L8.11849 4.40002L7.23515 4.75835C6.89349 4.90002 6.55182 5.10002 6.19349 5.36669L5.44349 5.93335L4.57682 5.58335L3.51849 5.15835L2.93515 6.16669L3.83515 6.86669L4.57682 7.45002L4.46015 8.39169C4.43515 8.64169 4.41849 8.83335 4.41849 9.00002C4.41849 9.16669 4.43515 9.35835 4.46015 9.61669L4.57682 10.5584L3.83515 11.1417L2.93515 11.8417L3.51849 12.85L4.57682 12.425L5.46015 12.0667L6.21849 12.65C6.55182 12.9 6.88515 13.0917 7.24349 13.2417L8.12682 13.6L8.41849 15.6667H9.58515L9.75182 14.5417L9.88515 13.6L10.7685 13.2417C11.1102 13.1 11.4518 12.9 11.8102 12.6334L12.5602 12.0667L13.4268 12.4167L14.4852 12.8417L15.0685 11.8334L14.1685 11.1334L13.4268 10.55L13.5435 9.60835C13.5685 9.35835 13.5852 9.17502 13.5852 9.00002ZM9.00182 5.66669C7.16015 5.66669 5.66849 7.15835 5.66849 9.00002C5.66849 10.8417 7.16015 12.3334 9.00182 12.3334C10.8435 12.3334 12.3352 10.8417 12.3352 9.00002C12.3352 7.15835 10.8435 5.66669 9.00182 5.66669ZM7.33515 9.00002C7.33515 9.91669 8.08515 10.6667 9.00182 10.6667C9.91849 10.6667 10.6685 9.91669 10.6685 9.00002C10.6685 8.08335 9.91849 7.33335 9.00182 7.33335C8.08515 7.33335 7.33515 8.08335 7.33515 9.00002Z" fill="#282220"/>
</svg>
