<svg width="24" height="24" viewBox="0 0 24 24" fill="none" xmlns="http://www.w3.org/2000/svg">
<path fill-rule="evenodd" clip-rule="evenodd" d="M19.7 3H4.3C3.6 3 3 3.6 3 4.3V19.7C3 20.4 3.6 21 4.3 21H19.6C20.3 21 20.9 20.4 20.9 19.7V4.3C21 3.6 20.4 3 19.7 3ZM8.3 18.3H5.7V9.7H8.4V18.3H8.3ZM7 8.6C6.1 8.6 5.5 7.9 5.5 7C5.5 6.1 6.2 5.5 7 5.5C7.9 5.5 8.5 6.2 8.5 7C8.6 7.9 7.9 8.6 7 8.6ZM18.3 18.3H15.6V14.1C15.6 13.1 15.6 11.8 14.2 11.8C12.8 11.8 12.6 12.9 12.6 14V18.2H10V9.7H12.6V10.9C13 10.2 13.8 9.5 15.1 9.5C17.8 9.5 18.3 11.3 18.3 13.6V18.3Z" fill="#282220"/>
</svg>
