<svg viewBox="0 0 18 18" fill="none" xmlns="http://www.w3.org/2000/svg">
<path fill-rule="evenodd" clip-rule="evenodd" d="M17.0066 0H0.993432C0.44465 0 0 0.444714 0 0.993424V17.0065C0 17.5552 0.44465 18 0.993432 18H9.61437V11.0294H7.26864V8.31287H9.61437V6.30949C9.61437 3.98462 11.0343 2.71866 13.1083 2.71866C14.1017 2.71866 14.9556 2.79258 15.2045 2.82563V5.2553L13.766 5.25598C12.6381 5.25598 12.4197 5.79194 12.4197 6.57845V8.31287H15.1097L14.7594 11.0294H12.4197V18H17.0066C17.5551 18 18 17.5552 18 17.0065V0.993424C18 0.444714 17.5551 0 17.0066 0Z" fill="#FBECD5"/>
</svg>
