<svg viewBox="0 0 22 18" fill="none" xmlns="http://www.w3.org/2000/svg">
<path fill-rule="evenodd" clip-rule="evenodd" d="M22 2.13043C21.1903 2.49171 20.3207 2.736 19.4076 2.84657C20.3398 2.28343 21.055 1.39371 21.3921 0.333C20.5199 0.852429 19.5544 1.23171 18.5264 1.43486C17.7027 0.550286 16.5291 0 15.2316 0C12.7387 0 10.7184 2.034 10.7184 4.54371C10.7184 4.89986 10.758 5.247 10.8346 5.58C7.08388 5.38971 3.75713 3.58071 1.5312 0.830571C1.14297 1.503 0.920764 2.28343 0.920764 3.11657C0.920764 4.69157 1.71765 6.08271 2.92831 6.89786C2.18889 6.87343 1.49289 6.67029 0.883729 6.33086C0.883729 6.34886 0.883729 6.36814 0.883729 6.38743C0.883729 8.58857 2.43919 10.4246 4.50421 10.8424C4.12492 10.9466 3.72648 11.0019 3.31526 11.0019C3.02409 11.0019 2.74186 10.9736 2.46601 10.9209C3.04069 12.726 4.70726 14.04 6.6816 14.076C5.13763 15.2949 3.19139 16.0213 1.07657 16.0213C0.712602 16.0213 0.35247 15.9994 0 15.9583C1.99733 17.2479 4.37012 18 6.91914 18C15.2213 18 19.7613 11.0751 19.7613 5.07086C19.7613 4.87414 19.7562 4.67743 19.7473 4.482C20.6297 3.84171 21.3947 3.042 22 2.13043Z" fill="#FBECD5"/>
</svg>
