<svg viewBox="0 0 23 20" fill="none" xmlns="http://www.w3.org/2000/svg">
<path fill-rule="evenodd" clip-rule="evenodd" d="M4.19 4.52505L1.51 1.84505L2.92 0.425049L20.65 18.165L19.24 19.575L15.82 16.155C14.48 16.685 13.02 16.975 11.5 16.975C6.5 16.975 2.23 13.865 0.5 9.47505C1.27 7.50505 2.56 5.80505 4.19 4.52505ZM11.5 3.97505C15.29 3.97505 18.67 6.10505 20.32 9.47505C19.73 10.695 18.9 11.745 17.91 12.595L19.32 14.005C20.71 12.775 21.81 11.235 22.5 9.47505C20.77 5.08505 16.5 1.97505 11.5 1.97505C10.23 1.97505 9.01 2.17505 7.86 2.54505L9.51 4.19505C10.16 4.06505 10.82 3.97505 11.5 3.97505ZM10.43 5.11505L12.5 7.18505C13.07 7.43505 13.53 7.89505 13.78 8.46505L15.85 10.535C15.93 10.195 15.99 9.83505 15.99 9.46505C16 6.98505 13.98 4.97505 11.5 4.97505C11.13 4.97505 10.78 5.02505 10.43 5.11505ZM9.01 9.34505L11.62 11.955C11.58 11.965 11.54 11.975 11.5 11.975C10.12 11.975 9 10.855 9 9.47505C9 9.45006 9.0025 9.43006 9.005 9.41007C9.0075 9.39007 9.01 9.37004 9.01 9.34505ZM7.36 7.69505L5.61 5.94505C4.4 6.86505 3.38 8.04505 2.68 9.47505C4.33 12.845 7.71 14.975 11.5 14.975C12.45 14.975 13.37 14.835 14.25 14.595L13.27 13.615C12.73 13.845 12.13 13.975 11.5 13.975C9.02 13.975 7 11.955 7 9.47505C7 8.84505 7.13 8.24505 7.36 7.69505Z" fill="#282220"/>
</svg>
