<svg width="512" height="512" viewBox="0 0 512 512" fill="none" xmlns="http://www.w3.org/2000/svg">
<g clip-path="url(#clip0_2632_0)">
<path d="M431.984 223.475C427.306 222.137 422.622 222.709 418.447 225.138C417.992 225.4 417.557 225.704 417.13 226C417.62 219.494 417.716 213.319 417.468 207.02C416.633 185.404 411.334 158.42 398.977 147.54C395.017 144.048 390.47 142.427 385.813 142.834C380.286 143.324 375.609 146.084 372.283 150.831C372.2 150.948 372.124 151.086 372.042 151.21C370.703 147.395 369.358 143.828 368.067 140.488C360.174 120.142 346.465 96.2902 331.624 90.398C326.809 88.4869 322.041 88.5352 317.825 90.5429C312.982 92.8474 309.636 96.8835 308.152 102.196C307.159 105.784 307.09 109.592 307.628 113.366C294.167 105.915 279.064 101.43 272.365 100.044C239.917 93.3096 203.273 104.535 198.389 122.715C196.733 128.876 198.547 135.155 203.377 139.943C205.233 141.785 207.427 143.31 209.821 144.518C206.123 147.132 202.673 150.127 199.534 153.473C199.327 153.639 199.127 153.818 198.941 154.011C180.126 173.392 166.582 203.37 158.627 234.011C143.524 210.207 126.248 196.029 107.191 191.834C90.529 188.171 77.3096 193.594 72.135 197.368C68.6231 199.92 68.0367 203.067 68.0022 204.709C67.8918 209.697 72.0039 212.995 73.3631 214.078C83.4018 222.109 100.864 239.234 105.018 263.637C106.819 274.221 107.019 285.274 107.233 296.975C107.757 325.498 108.343 357.822 135.044 386.662C150.796 403.683 171.943 419.731 219.584 421.884L219.756 421.89C224.4 422.097 236.805 422.594 251.604 422.594C273.179 422.594 299.859 421.552 315.045 417.081C360.319 403.779 382.612 382.067 384.812 379.838C409.595 357.153 429.017 324.904 436.779 293.526C447.75 249.169 446.273 227.56 431.984 223.475ZM207.034 163.036C207.323 162.815 207.592 162.567 207.848 162.291C218.335 150.775 233.279 144.173 248.844 144.173C254.343 144.173 259.739 145.007 264.9 146.574L269.453 148.167C277.36 151.334 284.529 156.309 290.31 162.815C290.359 162.863 290.407 162.918 290.455 162.974C318.798 192.655 333.432 248.52 335.026 287.868C335.033 287.944 335.04 288.027 335.047 288.103C335.233 290.455 335.329 292.815 335.329 295.119C335.329 342.809 296.534 381.604 248.844 381.604C201.162 381.604 162.366 342.809 162.366 295.14C162.511 238.951 184.845 186.397 207.034 163.036ZM425.043 290.628C417.82 319.826 399.688 349.887 376.533 371.027C376.443 371.11 376.347 371.2 376.264 371.29C369.109 378.651 346.396 395.272 311.637 405.483C287.364 412.624 227.097 410.12 220.301 409.816L220.122 409.803C176.848 407.85 157.923 393.582 143.91 378.451C120.349 352.992 119.824 324.401 119.321 296.755C119.107 285.122 118.893 273.089 116.933 261.609C112.269 234.19 93.5855 215.044 82.0633 205.571C86.4376 203.591 94.5445 201.431 104.597 203.646C122.218 207.517 139.143 223.241 153.542 249.107L154.756 251.28C151.824 266.618 150.313 281.652 150.278 295.119C150.278 349.474 194.497 393.692 248.844 393.692C303.199 393.692 347.417 349.474 347.417 295.119C347.417 292.532 347.314 289.89 347.1 287.254C346.155 264.168 341.387 238.909 333.68 216.1C325.022 190.461 313.12 169.238 299.273 154.701C292.318 146.898 283.714 140.923 274.235 137.066L274.248 137.039L273.71 136.852C272.068 136.197 270.398 135.624 268.708 135.1L268.542 135.038C256.606 130.863 243.021 130.843 228.167 134.969C221.75 136.756 214.996 134.437 211.884 131.36C209.276 128.773 209.869 126.579 210.062 125.854C212.305 117.513 239.751 105.618 269.909 111.876C283.066 114.608 310.954 125.158 318.943 138.287L322.089 143.455L322.296 143.324C325.401 148.395 328.444 153.963 330.845 160.214C333.922 168.231 345.886 198.803 347.417 209.324C347.417 209.324 353.24 190.62 341.573 157.171C338.938 149.602 335.702 143.007 332.39 137.183L332.411 137.163L331.783 136.135C329.499 132.181 327.188 128.594 325.029 125.309C320.571 118.541 318.426 110.379 319.799 105.446C320.337 103.514 321.365 102.244 323.028 101.458C323.745 101.113 324.96 100.754 327.16 101.63C336.123 105.191 348.307 122.97 356.794 144.869C360.105 153.418 364.3 163.574 367.626 175.455C367.874 177.256 368.219 179.056 368.695 180.836C373.249 197.961 373.263 215.424 372.697 230.216C371.662 257.572 366.998 270.847 364.825 277.326C364.569 278.085 365.597 278.588 366.039 277.919C370.979 270.447 379.169 254.944 382.687 231.81C385.137 215.741 385.392 196.574 380.376 177.725C378.403 170.308 379.148 162.097 382.184 157.765C383.84 155.398 385.654 154.984 386.875 154.874C387.352 154.832 388.821 154.701 390.988 156.612C398.563 163.284 404.49 184.203 405.394 207.489C405.994 223.123 405.463 237.046 400.923 258.131C396.631 273.71 390.946 287.433 385.337 298.728C374.946 319.647 360.83 337.061 360.395 337.606C360.92 337.427 377.754 331.349 393.968 306.607C402.454 293.65 409.285 275.283 414.259 254.882C416.591 245.305 420.524 237.916 424.519 235.591C425.857 234.811 427.134 234.659 428.659 235.101C429.045 235.211 437.959 238.406 425.043 290.628Z" fill="#282220"/>
<path d="M425.043 290.624C417.819 319.823 399.687 349.884 376.533 371.024C376.443 371.107 376.347 371.196 376.264 371.286C369.109 378.648 346.396 395.269 311.636 405.48C287.364 412.621 227.097 410.116 220.301 409.813L220.122 409.799C176.848 407.847 157.923 393.578 143.91 378.448C120.348 352.989 119.824 324.397 119.32 296.751C119.106 285.119 118.892 273.086 116.933 261.605C112.269 234.187 93.5851 215.041 82.063 205.568C86.4373 203.587 94.5442 201.428 104.597 203.643C122.218 207.513 139.142 223.237 153.542 249.103L154.756 251.277C151.824 266.614 150.313 281.648 150.278 295.116C150.278 349.47 194.497 393.689 248.844 393.689C303.198 393.689 347.417 349.47 347.417 295.116C347.417 292.529 347.313 289.886 347.1 287.251C346.154 264.165 341.387 238.906 333.68 216.096C325.021 190.458 313.12 169.235 299.272 154.698C292.318 146.894 283.714 140.919 274.234 137.063L274.248 137.035L273.71 136.849C272.068 136.193 270.398 135.621 268.708 135.096L268.542 135.034C256.606 130.86 243.021 130.839 228.166 134.965C221.75 136.752 214.995 134.434 211.884 131.357C209.276 128.769 209.869 126.575 210.062 125.851C212.304 117.509 239.751 105.615 269.908 111.873C283.066 114.605 310.953 125.154 318.943 138.284L322.089 143.452L322.296 143.32C325.401 148.392 328.443 153.959 330.844 160.21C333.922 168.228 345.885 198.799 347.417 209.321C347.417 209.321 353.24 190.616 341.573 157.168C338.938 149.599 335.702 143.003 332.39 137.18L332.411 137.159L331.783 136.131C329.499 132.178 327.188 128.59 325.028 125.306C320.571 118.538 318.425 110.375 319.798 105.442C320.337 103.51 321.365 102.241 323.027 101.454C323.745 101.109 324.959 100.751 327.16 101.627C336.123 105.187 348.307 122.967 356.793 144.866C360.105 153.414 364.3 163.57 367.626 175.451C367.874 177.252 368.219 179.053 368.695 180.833C373.249 197.957 373.262 215.42 372.697 230.212C371.662 257.569 366.998 270.844 364.824 277.322C364.569 278.081 365.597 278.585 366.039 277.916C370.979 270.443 379.168 254.94 382.687 231.806C385.136 215.737 385.392 196.571 380.376 177.721C378.403 170.304 379.148 162.094 382.183 157.761C383.839 155.395 385.654 154.981 386.875 154.87C387.351 154.829 388.821 154.698 390.987 156.609C398.563 163.281 404.49 184.2 405.393 207.486C405.994 223.12 405.462 237.043 400.922 258.128C396.631 273.707 390.946 287.43 385.337 298.724C374.946 319.644 360.83 337.058 360.395 337.603C360.919 337.424 377.754 331.345 393.968 306.604C402.454 293.646 409.285 275.28 414.259 254.878C416.591 245.302 420.524 237.912 424.519 235.587C425.857 234.808 427.134 234.656 428.658 235.097C429.045 235.208 437.959 238.402 425.043 290.624Z" fill="#F9AA29"/>
<path d="M335.328 295.12C335.328 342.809 296.532 381.605 248.843 381.605C201.161 381.605 162.365 342.809 162.365 295.14C162.51 238.951 184.843 186.398 207.032 163.036C207.322 162.815 207.591 162.567 207.846 162.291C218.333 150.776 233.278 144.173 248.843 144.173C254.342 144.173 259.737 145.008 264.898 146.574L269.452 148.168C277.358 151.335 284.527 156.309 290.309 162.815C290.357 162.864 290.405 162.919 290.454 162.974C318.797 192.655 333.43 248.521 335.024 287.868C335.031 287.944 335.038 288.027 335.045 288.103C335.231 290.456 335.328 292.815 335.328 295.12Z" fill="#FBECD5"/>
</g>
<defs>
<clipPath id="clip0_2632_0">
<rect width="512" height="512" fill="white"/>
</clipPath>
</defs>
</svg>
